<svg width="217" height="180" viewBox="0 0 217 180" fill="none" xmlns="http://www.w3.org/2000/svg">
<mask id="mask0_39_2" style="mask-type:alpha" maskUnits="userSpaceOnUse" x="67" y="76" width="81" height="81">
<circle cx="107.667" cy="116.222" r="40" fill="#8C19E6"/>
</mask>
<g mask="url(#mask0_39_2)">
<rect width="87" height="56" transform="matrix(1 0 0 -1 63 152)" fill="#AA3EFF"/>
</g>
<path d="M154 156H151" stroke="#FFDD2B" stroke-width="8" stroke-linecap="round"/>
<path d="M139 156H100" stroke="#FFDD2B" stroke-width="8" stroke-linecap="round"/>
<path d="M153 138C153 142.243 154.686 146.313 157.686 149.314C160.687 152.314 164.757 154 169 154C173.243 154 177.313 152.314 180.314 149.314C183.314 146.313 185 142.243 185 138L169 138L153 138Z" fill="#AA3EFF"/>
<path d="M143.222 89.5556H72.1111" stroke="#AA3EFF" stroke-width="13.3333" stroke-linecap="square"/>
<path d="M121.287 112.333C119.68 109.549 117.19 107.381 114.211 106.172C111.232 104.963 107.936 104.782 104.843 105.657C101.75 106.533 99.037 108.416 97.1345 111.007C95.232 113.598 94.2482 116.75 94.339 119.963C94.4298 123.177 95.5899 126.268 97.6356 128.748C99.6814 131.227 102.496 132.954 105.633 133.654C108.771 134.353 112.052 133.987 114.958 132.611C117.863 131.236 120.227 128.93 121.675 126.06" stroke="white" stroke-width="6.66667" stroke-linecap="square"/>
<path d="M116.556 100.667L96.5555 136.222" stroke="white" stroke-width="6.66667" stroke-linecap="square"/>
<path d="M83.686 160.926L38 148.365" stroke="#AA3EFF" stroke-width="8.88889" stroke-linecap="square"/>
<path d="M169 146C169 148.209 170.791 150 173 150C175.209 150 177 148.209 177 146L169 146ZM177 146L177 138L169 138L169 146L177 146Z" fill="#FFDD2B"/>
<path d="M77.5556 102C77.5556 104.455 79.5454 106.444 82 106.444C84.4546 106.444 86.4444 104.455 86.4444 102L77.5556 102ZM86.4444 102L86.4444 83L77.5556 83L77.5556 102L86.4444 102Z" fill="#FFDD2B"/>
<path d="M88.5656 22.3672C87.2271 21.612 86.2245 20.8802 85.5578 20.1719C84.7818 19.349 84.2245 18.3333 83.8859 17.125C83.5422 15.8906 83.3703 14.25 83.3703 12.2031C83.3703 11.6042 83.3286 11.2422 83.2453 11.1172C83.1099 10.9036 82.7844 10.7734 82.2688 10.7266V10.0469H86.2766V10.7266C85.7505 10.7786 85.4068 10.8932 85.2453 11.0703C85.0943 11.2318 85.0188 11.6562 85.0188 12.3438C85.0188 13.0312 85.0318 13.7161 85.0578 14.3984C85.0839 15.0755 85.1385 15.6849 85.2219 16.2266C85.3104 16.7682 85.4328 17.2552 85.5891 17.6875C85.7453 18.1146 85.9536 18.5208 86.2141 18.9062C86.6776 19.5885 87.4615 20.3698 88.5656 21.25C89.6385 20.375 90.4016 19.5938 90.8547 18.9062C91.3182 18.1979 91.6255 17.3099 91.7766 16.2422C91.8859 15.4453 91.9406 14.0469 91.9406 12.0469C91.9406 11.5573 91.8807 11.2474 91.7609 11.1172C91.5682 10.9089 91.2115 10.7786 90.6906 10.7266V10.0469H94.6828V10.7266C94.1828 10.7891 93.8729 10.9062 93.7531 11.0781C93.6438 11.2344 93.5891 11.7188 93.5891 12.5312C93.5891 13.3438 93.5474 14.1536 93.4641 14.9609C93.3859 15.7682 93.2609 16.4896 93.0891 17.125C92.9172 17.7604 92.6958 18.3255 92.425 18.8203C92.1594 19.3151 91.8417 19.7656 91.4719 20.1719C90.8365 20.875 89.8677 21.6068 88.5656 22.3672ZM98.1175 14.1875C98.5863 13.2656 99.4534 12.4844 100.719 11.8438C101.625 12.3281 102.313 12.8568 102.782 13.4297C103.547 14.3672 104.011 15.7344 104.172 17.5312C104.224 18.1615 104.25 18.7682 104.25 19.3516C104.25 19.9349 104.258 20.3307 104.274 20.5391C104.295 20.7474 104.339 20.9036 104.407 21.0078C104.474 21.112 104.571 21.1823 104.696 21.2188C104.826 21.25 104.953 21.276 105.078 21.2969C105.209 21.3177 105.3 21.3307 105.352 21.3359C105.409 21.3359 105.464 21.3411 105.516 21.3516V22H101.274V21.3516C101.571 21.3151 101.808 21.2812 101.985 21.25C102.162 21.2135 102.297 21.1484 102.391 21.0547C102.542 20.9036 102.618 20.4844 102.618 19.7969V18.8828C102.618 17.7005 102.589 16.8776 102.532 16.4141C102.474 15.9453 102.401 15.5625 102.313 15.2656C102.229 14.9688 102.115 14.6875 101.969 14.4219C101.693 13.9271 101.253 13.4349 100.649 12.9453C99.8727 13.4193 99.2972 13.9062 98.9222 14.4062C98.3857 15.125 98.1175 16.013 98.1175 17.0703V19.7188C98.1175 20.0781 98.1279 20.3594 98.1488 20.5625C98.1696 20.7604 98.2243 20.9115 98.3128 21.0156C98.4066 21.1198 98.542 21.1927 98.7191 21.2344C98.9014 21.2708 99.1514 21.3099 99.4691 21.3516V22H95.18V21.3594L95.1956 21.3516C95.5029 21.3151 95.7451 21.2786 95.9222 21.2422C96.0993 21.2005 96.2321 21.1328 96.3206 21.0391C96.456 20.8932 96.5238 20.5339 96.5238 19.9609V10.4922C96.5238 9.91406 96.4613 9.56771 96.3363 9.45312C96.2165 9.33854 96.068 9.26562 95.8909 9.23438C95.7139 9.19792 95.4769 9.16667 95.18 9.14062V8.48438H99.4691V9.14062C99.1774 9.17188 98.943 9.20312 98.7659 9.23438C98.5889 9.26562 98.4534 9.32292 98.3597 9.40625C98.1982 9.54167 98.1175 9.90365 98.1175 10.4922V14.1875ZM110.018 16.0938C110.018 15.5833 110.07 15.0755 110.174 14.5703C110.279 14.0651 110.435 13.5833 110.643 13.125C110.857 12.6615 111.122 12.2344 111.44 11.8438C111.758 11.4479 112.128 11.1042 112.549 10.8125C113.445 10.1927 114.508 9.88281 115.737 9.88281C117.555 9.88281 118.989 10.5365 120.042 11.8438C120.989 13.0156 121.463 14.4323 121.463 16.0938C121.463 17.7708 120.989 19.1719 120.042 20.2969C119 21.5365 117.565 22.1562 115.737 22.1562C113.898 22.1562 112.463 21.5312 111.432 20.2812C110.489 19.1458 110.018 17.75 110.018 16.0938ZM111.885 15.7109C111.885 16.3932 111.909 16.9479 111.956 17.375C112.003 17.8021 112.081 18.2109 112.19 18.6016C112.305 18.9922 112.456 19.3568 112.643 19.6953C112.831 20.0339 113.068 20.3281 113.354 20.5781C113.969 21.1042 114.768 21.3672 115.753 21.3672C117.586 21.3672 118.773 20.4479 119.315 18.6094C119.523 17.901 119.628 17.0625 119.628 16.0938C119.628 13.2812 118.792 11.5651 117.12 10.9453C116.729 10.7995 116.273 10.7266 115.753 10.7266C113.914 10.7266 112.729 11.6771 112.198 13.5781C111.989 14.3125 111.885 15.0234 111.885 15.7109ZM125.398 14.1875C125.867 13.2656 126.734 12.4844 128 11.8438C128.906 12.3281 129.593 12.8568 130.062 13.4297C130.828 14.3672 131.291 15.7344 131.453 17.5312C131.505 18.1615 131.531 18.7682 131.531 19.3516C131.531 19.9349 131.539 20.3307 131.554 20.5391C131.575 20.7474 131.619 20.9036 131.687 21.0078C131.755 21.112 131.851 21.1823 131.976 21.2188C132.106 21.25 132.234 21.276 132.359 21.2969C132.489 21.3177 132.58 21.3307 132.633 21.3359C132.69 21.3359 132.744 21.3411 132.797 21.3516V22H128.554V21.3516C128.851 21.3151 129.088 21.2812 129.265 21.25C129.442 21.2135 129.578 21.1484 129.672 21.0547C129.823 20.9036 129.898 20.4844 129.898 19.7969V18.8828C129.898 17.7005 129.869 16.8776 129.812 16.4141C129.755 15.9453 129.682 15.5625 129.593 15.2656C129.51 14.9688 129.396 14.6875 129.25 14.4219C128.974 13.9271 128.534 13.4349 127.929 12.9453C127.153 13.4193 126.578 13.9062 126.203 14.4062C125.666 15.125 125.398 16.013 125.398 17.0703V19.7188C125.398 20.0781 125.409 20.3594 125.429 20.5625C125.45 20.7604 125.505 20.9115 125.593 21.0156C125.687 21.1198 125.823 21.1927 126 21.2344C126.182 21.2708 126.432 21.3099 126.75 21.3516V22H122.461V21.3594L122.476 21.3516C122.784 21.3151 123.026 21.2786 123.203 21.2422C123.38 21.2005 123.513 21.1328 123.601 21.0391C123.737 20.8932 123.804 20.5339 123.804 19.9609V10.4922C123.804 9.91406 123.742 9.56771 123.617 9.45312C123.497 9.33854 123.349 9.26562 123.172 9.23438C122.994 9.19792 122.758 9.16667 122.461 9.14062V8.48438H126.75V9.14062C126.458 9.17188 126.224 9.20312 126.047 9.23438C125.869 9.26562 125.734 9.32292 125.64 9.40625C125.479 9.54167 125.398 9.90365 125.398 10.4922V14.1875ZM133.872 18.8047C133.83 15.6224 133.591 13.0911 133.153 11.2109C133.054 10.7839 132.94 10.4036 132.809 10.0703L134.239 8.67188L135.63 10.0703C135.213 11.1849 134.921 12.974 134.755 15.4375C134.677 16.526 134.632 17.6484 134.622 18.8047H133.872ZM134.278 19.6406L135.669 21.0391L134.278 22.4531L132.856 21.0391L134.278 19.6406ZM17.9112 33.0938C18.1508 32.7708 18.2706 32.4661 18.2706 32.1797C18.2706 31.888 18.2107 31.6589 18.0909 31.4922C17.9711 31.3203 17.8097 31.1771 17.6066 31.0625C17.1847 30.8281 16.6378 30.7109 15.9659 30.7109C15.3566 30.7109 14.8514 30.875 14.4503 31.2031C14.0493 31.5365 13.8487 31.9688 13.8487 32.5C13.8487 33.099 14.1092 33.612 14.63 34.0391C14.8904 34.2526 15.2107 34.4635 15.5909 34.6719C17.0076 35.4062 17.9243 35.8906 18.3409 36.125C18.7576 36.3542 19.13 36.6094 19.4581 36.8906C20.1665 37.4896 20.5206 38.1615 20.5206 38.9062C20.5206 40.026 20.0883 40.8698 19.2237 41.4375C18.4581 41.9375 17.4165 42.1875 16.0987 42.1875C15.0675 42.1875 14.1014 41.9635 13.2003 41.5156C12.5753 41.2031 12.1326 40.8125 11.8722 40.3438C11.742 40.1042 11.6769 39.8385 11.6769 39.5469C11.6769 39.2552 11.7394 38.9974 11.8644 38.7734C11.9946 38.5443 12.1534 38.349 12.3409 38.1875C12.6899 37.8802 13.0701 37.6875 13.4816 37.6094L13.9034 38.1094C13.7107 38.375 13.5987 38.599 13.5675 38.7812C13.5415 38.9583 13.5284 39.1589 13.5284 39.3828C13.5284 39.6016 13.5987 39.8359 13.7394 40.0859C13.88 40.3359 14.0701 40.5573 14.3097 40.75C14.8409 41.1719 15.4685 41.3828 16.1925 41.3828C17.4477 41.3828 18.2628 40.9844 18.6378 40.1875C18.7576 39.9323 18.8175 39.6302 18.8175 39.2812C18.8175 38.9323 18.7211 38.6276 18.5284 38.3672C18.3409 38.1016 18.0961 37.8672 17.7941 37.6641C17.4972 37.4557 17.1612 37.2656 16.7862 37.0938C16.4112 36.9167 15.9868 36.7057 15.5128 36.4609C15.0441 36.2161 14.5961 35.9557 14.1691 35.6797C13.7472 35.3984 13.3982 35.1146 13.1222 34.8281C12.5753 34.2552 12.3019 33.599 12.3019 32.8594C12.3019 31.9479 12.6769 31.2188 13.4269 30.6719C14.1456 30.1458 15.0649 29.8828 16.1847 29.8828C17.2211 29.8828 18.0909 30.0521 18.7941 30.3906C19.5336 30.7448 19.9034 31.2135 19.9034 31.7969C19.9034 32.349 19.6534 32.8047 19.1534 33.1641C18.9764 33.2943 18.755 33.3984 18.4894 33.4766L17.9112 33.0938ZM21.0881 37.2344C21.0881 36.8281 21.1272 36.4245 21.2053 36.0234C21.2886 35.6224 21.411 35.2422 21.5725 34.8828C21.7392 34.5234 21.9449 34.1927 22.1897 33.8906C22.4345 33.5885 22.7183 33.3281 23.0412 33.1094C23.734 32.6406 24.5386 32.4062 25.4553 32.4062C26.8407 32.4062 27.9345 32.901 28.7366 33.8906C29.4709 34.7969 29.8381 35.9141 29.8381 37.2422C29.8381 38.5807 29.4709 39.7188 28.7366 40.6562C27.9345 41.6771 26.8407 42.1875 25.4553 42.1875C24.0751 42.1875 22.9814 41.6693 22.1741 40.6328C21.4501 39.6953 21.0881 38.5625 21.0881 37.2344ZM24.5412 41.1484C24.8069 41.263 25.1142 41.3203 25.4631 41.3203C25.8173 41.3203 26.1272 41.2656 26.3928 41.1562C26.6584 41.0417 26.8876 40.8854 27.0803 40.6875C27.273 40.4896 27.4319 40.2604 27.5569 40C27.6871 39.7344 27.7912 39.4505 27.8694 39.1484C28.01 38.6068 28.0803 38.0729 28.0803 37.5469C28.0803 37.0156 28.0647 36.5885 28.0334 36.2656C28.0022 35.9375 27.9475 35.6276 27.8694 35.3359C27.7912 35.0391 27.6871 34.763 27.5569 34.5078C27.4319 34.2526 27.273 34.0312 27.0803 33.8438C26.6636 33.4479 26.1272 33.25 25.4709 33.25C24.2366 33.25 23.4397 33.9583 23.0803 35.375C22.9397 35.9115 22.8694 36.5339 22.8694 37.2422C22.8694 39.3672 23.4267 40.6693 24.5412 41.1484ZM30.8275 41.3516L31.0462 41.3203C31.5358 41.2526 31.8301 41.1667 31.9291 41.0625C32.028 40.9583 32.0905 40.8255 32.1166 40.6641C32.1426 40.4974 32.1556 40.2656 32.1556 39.9688V34.3984C32.1556 33.9245 32.0957 33.6354 31.9759 33.5312C31.8561 33.4219 31.7077 33.3516 31.5306 33.3203C31.3587 33.2839 31.1244 33.2552 30.8275 33.2344V32.5625H33.7416V34.1875C33.9655 33.7031 34.2155 33.3229 34.4916 33.0469C34.9655 32.5625 35.5124 32.1615 36.1322 31.8438C36.7936 32.2188 37.2858 32.5703 37.6087 32.8984C38.1504 33.4609 38.5515 34.0547 38.8119 34.6797C39.2233 33.8464 39.8614 33.1094 40.7259 32.4688C41.0072 32.2552 41.3171 32.0417 41.6556 31.8281C42.64 32.375 43.3874 32.9401 43.8978 33.5234C44.6947 34.4297 45.1686 35.7708 45.3197 37.5469C45.3718 38.1667 45.3978 38.7656 45.3978 39.3438C45.3978 39.9167 45.4108 40.3073 45.4369 40.5156C45.4681 40.724 45.5202 40.8828 45.5931 40.9922C45.6712 41.1016 45.7754 41.1745 45.9056 41.2109C46.0358 41.2474 46.2051 41.2812 46.4134 41.3125L46.7103 41.3516V42H42.4369V41.3516C42.7337 41.3151 42.9707 41.2812 43.1478 41.25C43.3249 41.2135 43.4603 41.1484 43.5541 41.0547C43.7103 40.8984 43.7884 40.4792 43.7884 39.7969L43.7962 38.6172C43.8067 37.1328 43.6791 36.026 43.4134 35.2969C43.1322 34.5104 42.5462 33.724 41.6556 32.9375C41.015 33.474 40.5489 34.0234 40.2572 34.5859C39.9655 35.1484 39.7806 35.7552 39.7025 36.4062C39.5931 37.3229 39.5384 38.224 39.5384 39.1094C39.5384 39.9896 39.5541 40.5104 39.5853 40.6719C39.6166 40.8281 39.6739 40.9479 39.7572 41.0312C39.8822 41.1562 40.1895 41.2526 40.6791 41.3203L40.89 41.3516V42H36.6087V41.3516C36.9056 41.3151 37.1426 41.2812 37.3197 41.25C37.4968 41.2188 37.6322 41.1562 37.7259 41.0625C37.877 40.9167 37.9525 40.5104 37.9525 39.8438V38.8984C37.9525 37.2214 37.8666 36.0859 37.6947 35.4922C37.528 34.8932 37.3171 34.4089 37.0619 34.0391C36.8119 33.6693 36.4759 33.3047 36.0541 32.9453C35.3457 33.3984 34.8093 33.9062 34.4447 34.4688C33.9759 35.1979 33.7416 36.0651 33.7416 37.0703V39.7188C33.7416 40.4062 33.791 40.8177 33.89 40.9531C33.9942 41.0885 34.1218 41.1771 34.2728 41.2188C34.4239 41.2552 34.6296 41.2917 34.89 41.3281L35.0931 41.3516V42H30.8275V41.3516ZM54.1997 40.8359C53.4861 41.7161 52.4158 42.1562 50.9887 42.1562C49.6137 42.1562 48.5382 41.7109 47.7622 40.8203C47.0174 39.9609 46.645 38.8255 46.645 37.4141C46.645 35.9609 47.0591 34.7604 47.8872 33.8125C48.7101 32.875 49.7648 32.4062 51.0512 32.4062C52.0356 32.4062 52.8039 32.6146 53.3559 33.0312C53.882 33.4219 54.145 33.9583 54.145 34.6406C54.145 35.5208 53.7179 36.263 52.8637 36.8672C51.869 37.5703 50.3637 37.9297 48.3481 37.9453C48.5304 40.0755 49.494 41.1406 51.2387 41.1406C52.3325 41.1406 53.171 40.8906 53.7544 40.3906L54.1997 40.8359ZM48.3247 37.1094C50.1789 37.0729 51.4341 36.6328 52.0903 35.7891C52.3299 35.4766 52.4497 35.0885 52.4497 34.625C52.4497 34.0208 52.1893 33.6042 51.6684 33.375C51.4653 33.2865 51.2127 33.2422 50.9106 33.2422C50.6085 33.2422 50.3403 33.2969 50.1059 33.4062C49.8716 33.5104 49.6606 33.6562 49.4731 33.8438C49.2856 34.026 49.1216 34.2422 48.9809 34.4922C48.8403 34.737 48.7231 35.0026 48.6294 35.2891C48.4367 35.8776 48.3351 36.4844 48.3247 37.1094ZM55.025 37.2344C55.025 36.8281 55.0641 36.4245 55.1422 36.0234C55.2255 35.6224 55.3479 35.2422 55.5094 34.8828C55.676 34.5234 55.8818 34.1927 56.1266 33.8906C56.3714 33.5885 56.6552 33.3281 56.9781 33.1094C57.6708 32.6406 58.4755 32.4062 59.3922 32.4062C60.7776 32.4062 61.8714 32.901 62.6734 33.8906C63.4078 34.7969 63.775 35.9141 63.775 37.2422C63.775 38.5807 63.4078 39.7188 62.6734 40.6562C61.8714 41.6771 60.7776 42.1875 59.3922 42.1875C58.012 42.1875 56.9182 41.6693 56.1109 40.6328C55.387 39.6953 55.025 38.5625 55.025 37.2344ZM58.4781 41.1484C58.7437 41.263 59.051 41.3203 59.4 41.3203C59.7542 41.3203 60.0641 41.2656 60.3297 41.1562C60.5953 41.0417 60.8245 40.8854 61.0172 40.6875C61.2099 40.4896 61.3687 40.2604 61.4937 40C61.624 39.7344 61.7281 39.4505 61.8062 39.1484C61.9469 38.6068 62.0172 38.0729 62.0172 37.5469C62.0172 37.0156 62.0016 36.5885 61.9703 36.2656C61.9391 35.9375 61.8844 35.6276 61.8062 35.3359C61.7281 35.0391 61.624 34.763 61.4937 34.5078C61.3687 34.2526 61.2099 34.0312 61.0172 33.8438C60.6005 33.4479 60.0641 33.25 59.4078 33.25C58.1734 33.25 57.3766 33.9583 57.0172 35.375C56.8766 35.9115 56.8062 36.5339 56.8062 37.2422C56.8062 39.3672 57.3635 40.6693 58.4781 41.1484ZM67.7253 34.1875C68.1993 33.2448 69.0482 32.4635 70.2722 31.8438C71.1732 32.3229 71.8659 32.849 72.3503 33.4219C73.1159 34.3438 73.5795 35.7135 73.7409 37.5312C73.793 38.1562 73.8191 38.7604 73.8191 39.3438C73.8191 39.9271 73.8295 40.3229 73.8503 40.5312C73.8711 40.7396 73.9154 40.8984 73.9831 41.0078C74.0508 41.112 74.1498 41.1823 74.28 41.2188C74.4102 41.25 74.5404 41.276 74.6706 41.2969C74.8008 41.3177 74.892 41.3307 74.9441 41.3359C75.0014 41.3359 75.0586 41.3411 75.1159 41.3516V42H70.8425V41.3516C71.1394 41.3151 71.3764 41.2812 71.5534 41.25C71.7305 41.2135 71.8659 41.1484 71.9597 41.0547C72.1107 40.9036 72.1862 40.4844 72.1862 39.7969V38.8906C72.1862 37.6979 72.1576 36.8724 72.1003 36.4141C72.043 35.9505 71.9701 35.5703 71.8816 35.2734C71.7982 34.9714 71.6836 34.6875 71.5378 34.4219C71.2514 33.9219 70.8034 33.4297 70.1941 32.9453C68.5482 33.9609 67.7253 35.3359 67.7253 37.0703V39.7188C67.7253 40.4062 67.7748 40.8177 67.8737 40.9531C67.9779 41.0885 68.1055 41.1771 68.2566 41.2188C68.4076 41.2552 68.6133 41.2917 68.8737 41.3281L69.0769 41.3516V42H64.8034V41.3594C64.8347 41.3438 64.8737 41.3359 64.9206 41.3359C64.9727 41.3307 65.0639 41.3203 65.1941 41.3047C65.3295 41.2839 65.4675 41.2552 65.6081 41.2188C65.754 41.1823 65.8659 41.1198 65.9441 41.0312C66.0743 40.8906 66.1394 40.5365 66.1394 39.9688V34.3984C66.1394 33.9245 66.0795 33.6354 65.9597 33.5312C65.8399 33.4219 65.6915 33.3516 65.5144 33.3203C65.3373 33.2839 65.1003 33.2552 64.8034 33.2344V32.5625H67.7253V34.1875ZM82.8553 40.8359C82.1418 41.7161 81.0715 42.1562 79.6444 42.1562C78.2694 42.1562 77.1939 41.7109 76.4178 40.8203C75.673 39.9609 75.3006 38.8255 75.3006 37.4141C75.3006 35.9609 75.7147 34.7604 76.5428 33.8125C77.3657 32.875 78.4204 32.4062 79.7069 32.4062C80.6912 32.4062 81.4595 32.6146 82.0116 33.0312C82.5376 33.4219 82.8006 33.9583 82.8006 34.6406C82.8006 35.5208 82.3735 36.263 81.5194 36.8672C80.5246 37.5703 79.0194 37.9297 77.0037 37.9453C77.186 40.0755 78.1496 41.1406 79.8944 41.1406C80.9881 41.1406 81.8267 40.8906 82.41 40.3906L82.8553 40.8359ZM76.9803 37.1094C78.8345 37.0729 80.0897 36.6328 80.7459 35.7891C80.9855 35.4766 81.1053 35.0885 81.1053 34.625C81.1053 34.0208 80.8449 33.6042 80.3241 33.375C80.1209 33.2865 79.8683 33.2422 79.5662 33.2422C79.2642 33.2422 78.9959 33.2969 78.7616 33.4062C78.5272 33.5104 78.3162 33.6562 78.1287 33.8438C77.9412 34.026 77.7772 34.2422 77.6366 34.4922C77.4959 34.737 77.3787 35.0026 77.285 35.2891C77.0923 35.8776 76.9907 36.4844 76.9803 37.1094ZM90.4278 34.0156C90.3393 34.1771 90.295 34.3646 90.295 34.5781C90.295 34.7865 90.394 35.0391 90.5919 35.3359L90.0606 35.6562C89.446 35.5521 89.0007 35.2943 88.7247 34.8828C88.6257 34.7422 88.5762 34.5599 88.5762 34.3359C88.5762 34.112 88.6674 33.8802 88.8497 33.6406C89.032 33.3958 89.2872 33.1823 89.6153 33C90.3341 32.6042 91.2403 32.4062 92.3341 32.4062C94.1153 32.4062 95.2221 32.9219 95.6544 33.9531C95.7898 34.276 95.8575 34.6328 95.8575 35.0234V39.9219C95.8575 40.526 95.9148 40.8906 96.0294 41.0156C96.144 41.1354 96.282 41.2135 96.4434 41.25C96.6101 41.2865 96.8315 41.3177 97.1075 41.3438V42H95.17C94.7846 42 94.3445 42.0208 93.8497 42.0625C92.8341 42.1562 92.0528 42.2031 91.5059 42.2031C90.9591 42.2031 90.4773 42.1302 90.0606 41.9844C89.644 41.8385 89.3028 41.6458 89.0372 41.4062C88.5216 40.9427 88.2637 40.3516 88.2637 39.6328C88.2637 38.8568 88.7143 38.1406 89.6153 37.4844C90.6986 36.6823 92.2533 36.2604 94.2794 36.2188V34.8516C94.2794 33.7682 93.558 33.2266 92.1153 33.2266C91.2924 33.2266 90.7299 33.4896 90.4278 34.0156ZM94.2794 37.0312H94.295L94.2794 37.0234V37.0312ZM94.2794 37.0312C91.4617 37.1979 90.0528 38.0651 90.0528 39.6328C90.0528 40.4609 90.4721 40.9948 91.3106 41.2344C91.571 41.3125 91.8966 41.3516 92.2872 41.3516C92.6778 41.3516 93.0085 41.3307 93.2794 41.2891C93.5554 41.2422 93.7664 41.1615 93.9122 41.0469C94.0632 40.9323 94.1622 40.776 94.2091 40.5781C94.2559 40.375 94.2794 40.1146 94.2794 39.7969V37.0312ZM97.6906 41.3516C97.925 41.2995 98.1099 41.2552 98.2453 41.2188C98.3859 41.1771 98.4901 41.1094 98.5578 41.0156C98.6724 40.8646 98.7297 40.474 98.7297 39.8438V33.5156H97.3937V32.7969C98.1542 32.6875 98.5917 32.5755 98.7062 32.4609H98.6984C98.813 32.3047 98.9146 31.9557 99.0031 31.4141C99.0917 30.8724 99.1463 30.474 99.1672 30.2188L100.3 29.75V32.5625H103.128V33.5156H100.3V39.8203C100.3 40.3047 100.334 40.6146 100.402 40.75C100.474 40.8802 100.563 40.9766 100.667 41.0391C100.771 41.1016 100.912 41.1484 101.089 41.1797C101.376 41.2318 101.899 41.263 102.659 41.2734V42H97.6906V41.3516ZM110.36 40.8359C109.646 41.7161 108.576 42.1562 107.149 42.1562C105.774 42.1562 104.698 41.7109 103.922 40.8203C103.177 39.9609 102.805 38.8255 102.805 37.4141C102.805 35.9609 103.219 34.7604 104.047 33.8125C104.87 32.875 105.925 32.4062 107.211 32.4062C108.196 32.4062 108.964 32.6146 109.516 33.0312C110.042 33.4219 110.305 33.9583 110.305 34.6406C110.305 35.5208 109.878 36.263 109.024 36.8672C108.029 37.5703 106.524 37.9297 104.508 37.9453C104.69 40.0755 105.654 41.1406 107.399 41.1406C108.493 41.1406 109.331 40.8906 109.914 40.3906L110.36 40.8359ZM104.485 37.1094C106.339 37.0729 107.594 36.6328 108.25 35.7891C108.49 35.4766 108.61 35.0885 108.61 34.625C108.61 34.0208 108.349 33.6042 107.828 33.375C107.625 33.2865 107.373 33.2422 107.071 33.2422C106.769 33.2422 106.5 33.2969 106.266 33.4062C106.032 33.5104 105.821 33.6562 105.633 33.8438C105.446 34.026 105.282 34.2422 105.141 34.4922C105 34.737 104.883 35.0026 104.789 35.2891C104.597 35.8776 104.495 36.4844 104.485 37.1094ZM121.901 40.5703C121.312 41.487 120.495 42.2031 119.448 42.7188C118.547 42.2396 117.854 41.7135 117.37 41.1406C116.604 40.2188 116.141 38.849 115.979 37.0312C115.927 36.4062 115.901 35.8099 115.901 35.2422C115.901 34.6745 115.888 34.2839 115.862 34.0703C115.836 33.8568 115.784 33.6927 115.706 33.5781C115.633 33.4583 115.526 33.3776 115.385 33.3359C115.25 33.2891 115.068 33.2552 114.838 33.2344V32.5625H118.776V33.2344L118.581 33.2578C118.346 33.2891 118.159 33.3229 118.018 33.3594C117.883 33.3906 117.779 33.4531 117.706 33.5469C117.591 33.7031 117.534 34.1094 117.534 34.7656V35.6719C117.534 36.4688 117.549 37.1589 117.581 37.7422C117.617 38.3255 117.703 38.8438 117.838 39.2969C118.094 40.1615 118.654 40.9349 119.518 41.6172C121.117 40.6328 121.917 39.2552 121.917 37.4844V34.8438C121.917 34.1406 121.867 33.7266 121.768 33.6016C121.674 33.4766 121.557 33.3958 121.417 33.3594C121.281 33.3229 121.096 33.2891 120.862 33.2578L120.674 33.2344V32.5625H124.604V33.2266L124.588 33.2344C124.13 33.276 123.849 33.3724 123.745 33.5234C123.583 33.7578 123.502 34.2188 123.502 34.9062V38.3984C123.502 40.7266 123.172 42.5234 122.51 43.7891C121.708 45.3307 120.286 46.263 118.245 46.5859L118.081 45.7656C119.331 45.4583 120.252 44.8906 120.846 44.0625C121.424 43.2604 121.776 42.0964 121.901 40.5703ZM124.914 37.2344C124.914 36.8281 124.953 36.4245 125.031 36.0234C125.114 35.6224 125.237 35.2422 125.398 34.8828C125.565 34.5234 125.771 34.1927 126.015 33.8906C126.26 33.5885 126.544 33.3281 126.867 33.1094C127.56 32.6406 128.364 32.4062 129.281 32.4062C130.666 32.4062 131.76 32.901 132.562 33.8906C133.297 34.7969 133.664 35.9141 133.664 37.2422C133.664 38.5807 133.297 39.7188 132.562 40.6562C131.76 41.6771 130.666 42.1875 129.281 42.1875C127.901 42.1875 126.807 41.6693 126 40.6328C125.276 39.6953 124.914 38.5625 124.914 37.2344ZM128.367 41.1484C128.633 41.263 128.94 41.3203 129.289 41.3203C129.643 41.3203 129.953 41.2656 130.218 41.1562C130.484 41.0417 130.713 40.8854 130.906 40.6875C131.099 40.4896 131.258 40.2604 131.383 40C131.513 39.7344 131.617 39.4505 131.695 39.1484C131.836 38.6068 131.906 38.0729 131.906 37.5469C131.906 37.0156 131.89 36.5885 131.859 36.2656C131.828 35.9375 131.773 35.6276 131.695 35.3359C131.617 35.0391 131.513 34.763 131.383 34.5078C131.258 34.2526 131.099 34.0312 130.906 33.8438C130.489 33.4479 129.953 33.25 129.297 33.25C128.062 33.25 127.265 33.9583 126.906 35.375C126.765 35.9115 126.695 36.5339 126.695 37.2422C126.695 39.3672 127.252 40.6693 128.367 41.1484ZM138.817 42.4062C137.828 41.8125 137.098 41.2604 136.63 40.75C135.807 39.849 135.312 38.5417 135.145 36.8281C135.083 36.2135 135.052 35.6406 135.052 35.1094C135.052 34.5729 135.046 34.2161 135.036 34.0391C135.026 33.8568 134.984 33.7109 134.911 33.6016C134.786 33.4036 134.468 33.2812 133.958 33.2344V32.5625H137.802V33.2344C137.286 33.2865 136.953 33.401 136.802 33.5781C136.682 33.7292 136.622 34.0938 136.622 34.6719C136.622 35.25 136.63 35.7891 136.645 36.2891C136.666 36.7891 136.703 37.237 136.755 37.6328C136.807 38.0286 136.882 38.3854 136.981 38.7031C137.08 39.0156 137.213 39.3125 137.38 39.5938C137.682 40.1146 138.161 40.6823 138.817 41.2969C139.489 40.6667 139.937 40.1562 140.161 39.7656C140.39 39.3698 140.554 39.0156 140.653 38.7031C140.752 38.3854 140.828 38.0286 140.88 37.6328C140.968 36.9609 141.012 36.2214 141.012 35.4141C141.012 34.6016 141.002 34.1172 140.981 33.9609C140.96 33.8047 140.911 33.6771 140.833 33.5781C140.682 33.401 140.351 33.2865 139.841 33.2344V32.5625H143.669V33.2344C143.158 33.3073 142.859 33.4115 142.77 33.5469C142.682 33.6771 142.627 33.8307 142.606 34.0078C142.591 34.1849 142.583 34.5469 142.583 35.0938C142.583 35.6354 142.552 36.2135 142.489 36.8281C142.432 37.4427 142.338 37.9896 142.208 38.4688C142.083 38.9479 141.921 39.3724 141.723 39.7422C141.526 40.1068 141.286 40.4427 141.005 40.75C140.536 41.2604 139.807 41.8125 138.817 42.4062ZM149.564 35.3984C149.856 35.1172 150.002 34.6901 150.002 34.1172C150.002 33.8359 149.869 33.6146 149.603 33.4531C149.379 33.3229 149.038 33.2578 148.58 33.2578C147.59 33.2578 147.096 33.5807 147.096 34.2266V40.1641C147.096 40.388 147.116 40.5729 147.158 40.7188C147.205 40.8646 147.307 40.9818 147.463 41.0703C147.734 41.2266 148.359 41.3203 149.338 41.3516V42H144.119V41.3594L144.135 41.3516C144.749 41.2891 145.116 41.2031 145.236 41.0938C145.361 40.9792 145.437 40.849 145.463 40.7031C145.494 40.5521 145.51 40.3516 145.51 40.1016V34.6875C145.51 34.1198 145.452 33.7682 145.338 33.6328C145.228 33.4974 145.093 33.4036 144.932 33.3516C144.77 33.2995 144.557 33.2578 144.291 33.2266V32.5625H145.908C146.549 32.5625 147.004 32.5495 147.275 32.5234C147.546 32.4974 147.76 32.4792 147.916 32.4688C148.385 32.4271 148.765 32.4062 149.057 32.4062C149.353 32.4062 149.658 32.4297 149.971 32.4766C150.283 32.5234 150.559 32.6042 150.799 32.7188C151.325 32.9688 151.588 33.3568 151.588 33.8828C151.588 34.3047 151.416 34.6979 151.072 35.0625C150.749 35.4062 150.39 35.6328 149.994 35.7422L149.564 35.3984ZM161.817 35.0156C162.014 34.7083 162.113 34.4323 162.113 34.1875C162.113 33.9375 161.965 33.7188 161.668 33.5312C161.376 33.3385 161.027 33.2422 160.621 33.2422C160.215 33.2422 159.902 33.2786 159.684 33.3516C159.465 33.4245 159.28 33.526 159.129 33.6562C158.832 33.9115 158.684 34.2526 158.684 34.6797C158.684 35.1953 159.116 35.6719 159.981 36.1094C160.231 36.2396 160.442 36.3438 160.613 36.4219C161.931 37.0156 162.767 37.4557 163.121 37.7422C163.475 38.0234 163.731 38.2943 163.887 38.5547C164.048 38.8151 164.129 39.138 164.129 39.5234C164.129 39.9089 164.022 40.2708 163.809 40.6094C163.595 40.9479 163.311 41.2344 162.957 41.4688C162.238 41.9479 161.374 42.1875 160.363 42.1875C159.421 42.1875 158.598 41.9948 157.895 41.6094C157.124 41.1979 156.749 40.6745 156.77 40.0391C156.78 39.6641 156.942 39.3281 157.254 39.0312C157.535 38.7656 157.871 38.5885 158.262 38.5L158.606 38.8984C158.408 39.1432 158.309 39.4714 158.309 39.8828C158.309 40.2422 158.496 40.5625 158.871 40.8438C159.288 41.1615 159.819 41.3203 160.465 41.3203C161.116 41.3203 161.626 41.1745 161.996 40.8828C162.371 40.5911 162.559 40.2005 162.559 39.7109C162.559 39.138 162.08 38.6328 161.121 38.1953C160.835 38.0651 160.6 37.9635 160.418 37.8906C160.236 37.8125 160.121 37.763 160.074 37.7422C160.027 37.7214 159.897 37.6641 159.684 37.5703C159.475 37.4714 159.202 37.3255 158.863 37.1328C158.53 36.9401 158.236 36.7292 157.981 36.5C157.434 36.0156 157.16 35.4688 157.16 34.8594C157.16 34.1042 157.494 33.5 158.16 33.0469C158.796 32.6198 159.639 32.4062 160.692 32.4062C161.504 32.4062 162.173 32.5677 162.699 32.8906C163.231 33.2135 163.496 33.6146 163.496 34.0938C163.496 34.3958 163.353 34.6719 163.067 34.9219C162.817 35.1354 162.548 35.2734 162.262 35.3359L161.817 35.0156ZM164.876 41.3516C165.111 41.2995 165.296 41.2552 165.431 41.2188C165.572 41.1771 165.676 41.1094 165.743 41.0156C165.858 40.8646 165.915 40.474 165.915 39.8438V33.5156H164.579V32.7969C165.34 32.6875 165.777 32.5755 165.892 32.4609H165.884C165.999 32.3047 166.1 31.9557 166.189 31.4141C166.277 30.8724 166.332 30.474 166.353 30.2188L167.486 29.75V32.5625H170.314V33.5156H167.486V39.8203C167.486 40.3047 167.519 40.6146 167.587 40.75C167.66 40.8802 167.749 40.9766 167.853 41.0391C167.957 41.1016 168.098 41.1484 168.275 41.1797C168.561 41.2318 169.085 41.263 169.845 41.2734V42H164.876V41.3516ZM177.545 40.8359C176.832 41.7161 175.761 42.1562 174.334 42.1562C172.959 42.1562 171.884 41.7109 171.108 40.8203C170.363 39.9609 169.991 38.8255 169.991 37.4141C169.991 35.9609 170.405 34.7604 171.233 33.8125C172.056 32.875 173.11 32.4062 174.397 32.4062C175.381 32.4062 176.149 32.6146 176.702 33.0312C177.228 33.4219 177.491 33.9583 177.491 34.6406C177.491 35.5208 177.064 36.263 176.209 36.8672C175.215 37.5703 173.709 37.9297 171.694 37.9453C171.876 40.0755 172.84 41.1406 174.584 41.1406C175.678 41.1406 176.517 40.8906 177.1 40.3906L177.545 40.8359ZM171.67 37.1094C173.524 37.0729 174.78 36.6328 175.436 35.7891C175.676 35.4766 175.795 35.0885 175.795 34.625C175.795 34.0208 175.535 33.6042 175.014 33.375C174.811 33.2865 174.558 33.2422 174.256 33.2422C173.954 33.2422 173.686 33.2969 173.452 33.4062C173.217 33.5104 173.006 33.6562 172.819 33.8438C172.631 34.026 172.467 34.2422 172.327 34.4922C172.186 34.737 172.069 35.0026 171.975 35.2891C171.782 35.8776 171.681 36.4844 171.67 37.1094ZM182.628 41.5312C183.285 40.8854 183.714 40.3646 183.918 39.9688C184.126 39.5729 184.272 39.2161 184.355 38.8984C184.444 38.5807 184.509 38.2266 184.55 37.8359C184.618 37.263 184.652 36.5365 184.652 35.6562C184.652 34.7708 184.641 34.2292 184.621 34.0312C184.6 33.8281 184.548 33.6719 184.464 33.5625C184.386 33.4479 184.264 33.3698 184.097 33.3281C183.936 33.2812 183.714 33.2448 183.433 33.2188V32.5625H187.441V33.2188C187.16 33.2552 186.936 33.2943 186.769 33.3359C186.608 33.3724 186.485 33.4427 186.402 33.5469C186.272 33.7083 186.207 34.1354 186.207 34.8281C186.207 35.5156 186.214 36.1172 186.23 36.6328C186.246 37.1432 186.279 37.599 186.332 38C186.384 38.3958 186.454 38.7474 186.543 39.0547C186.636 39.362 186.759 39.651 186.91 39.9219C187.175 40.3958 187.618 40.9323 188.238 41.5312C188.868 40.901 189.321 40.3125 189.597 39.7656C189.878 39.1979 190.05 38.612 190.113 38.0078C190.207 37.1589 190.253 36.3099 190.253 35.4609C190.253 34.612 190.246 34.1068 190.23 33.9453C190.214 33.7786 190.168 33.6458 190.089 33.5469C189.949 33.3802 189.595 33.2708 189.027 33.2188V32.5625H192.941V33.2188C192.425 33.2865 192.108 33.388 191.988 33.5234C191.863 33.6745 191.8 34.1146 191.8 34.8438C191.8 35.5729 191.774 36.25 191.722 36.875C191.675 37.4948 191.595 38.0521 191.48 38.5469C191.365 39.0365 191.217 39.4766 191.035 39.8672C190.858 40.2526 190.636 40.6042 190.371 40.9219C189.897 41.4948 189.186 42.0651 188.238 42.6328C187.55 42.1797 187.035 41.7656 186.691 41.3906C186.113 40.7552 185.696 40.125 185.441 39.5C185.149 40.1667 184.837 40.6823 184.503 41.0469C183.936 41.6667 183.311 42.1953 182.628 42.6328C181.681 42.0651 180.97 41.4948 180.496 40.9219C179.735 40.0052 179.285 38.6562 179.144 36.875C179.092 36.25 179.066 35.6641 179.066 35.1172C179.066 34.5651 179.056 34.1979 179.035 34.0156C179.019 33.8281 178.975 33.6823 178.902 33.5781C178.782 33.4115 178.457 33.2917 177.925 33.2188V32.5625H181.839V33.2188C181.266 33.2656 180.91 33.3854 180.769 33.5781C180.66 33.724 180.605 34.0911 180.605 34.6797C180.605 35.263 180.61 35.8125 180.621 36.3281C180.636 36.8385 180.665 37.2995 180.707 37.7109C180.753 38.1224 180.821 38.4948 180.91 38.8281C180.998 39.1562 181.118 39.4688 181.269 39.7656C181.55 40.3177 182.003 40.9062 182.628 41.5312ZM198.545 39.6406L199.935 41.0391L198.545 42.4531L197.123 41.0391L198.545 39.6406ZM198.545 32.7109L199.935 34.1094L198.545 35.5234L197.123 34.1094L198.545 32.7109ZM202.651 35.6797C202.651 39.6797 203.685 42.5443 205.753 44.2734L205.3 44.7344C204.242 43.9583 203.331 42.9583 202.565 41.7344C201.503 40.0365 200.972 38.0599 200.972 35.8047C200.972 33.1276 201.815 30.8333 203.503 28.9219C204.086 28.2656 204.685 27.75 205.3 27.375L205.753 27.8438C203.867 29.4792 202.847 31.7031 202.69 34.5156C202.664 34.9323 202.651 35.3203 202.651 35.6797Z" fill="white"/>
</svg>
