<svg width="217" height="180" viewBox="0 0 217 180" fill="none" xmlns="http://www.w3.org/2000/svg">
<circle cx="111" cy="81.7778" r="18.8889" fill="#FFDD2B"/>
<circle cx="132.111" cy="82.8889" r="8.88889" fill="#FFDD2B"/>
<circle cx="87.6666" cy="87.3333" r="13.3333" fill="#FFDD2B"/>
<circle cx="87.6667" cy="60.6667" r="6.66667" fill="#FFDD2B"/>
<path d="M147.667 156.222H76.5556" stroke="#FFDD2B" stroke-width="8.88889" stroke-linecap="round"/>
<path d="M136.556 165.111H114.333" stroke="#FFDD2B" stroke-width="8.88889" stroke-linecap="round"/>
<path d="M172.111 156.222H163.222" stroke="#FFDD2B" stroke-width="8.88889" stroke-linecap="round"/>
<path d="M76.5555 174H67.6667" stroke="#FFDD2B" stroke-width="8.88889" stroke-linecap="round"/>
<path d="M176.556 174H92.1111" stroke="#FFDD2B" stroke-width="8.88889" stroke-linecap="round"/>
<path d="M83.2222 162.889L41 154" stroke="#AA3EFF" stroke-width="8.88889" stroke-linecap="square"/>
<mask id="mask0_3_95" style="mask-type:alpha" maskUnits="userSpaceOnUse" x="67" y="76" width="81" height="81">
<circle cx="107.667" cy="116.222" r="40" fill="#8C19E6"/>
</mask>
<g mask="url(#mask0_3_95)">
<rect width="86.6667" height="55.5556" transform="matrix(1 0 0 -1 63.2222 151.778)" fill="#AA3EFF"/>
</g>
<path d="M143.222 89.5556H72.1111" stroke="#AA3EFF" stroke-width="13.3333" stroke-linecap="square"/>
<path d="M121.287 112.333C119.68 109.549 117.19 107.381 114.211 106.172C111.232 104.963 107.936 104.782 104.843 105.657C101.75 106.533 99.037 108.416 97.1345 111.007C95.232 113.598 94.2483 116.75 94.3391 119.963C94.4298 123.177 95.59 126.268 97.6357 128.748C99.6815 131.227 102.496 132.954 105.633 133.654C108.771 134.353 112.052 133.987 114.958 132.611C117.863 131.236 120.227 128.93 121.675 126.06" stroke="white" stroke-width="6.66667" stroke-linecap="square"/>
<path d="M116.556 100.667L96.5555 136.222" stroke="white" stroke-width="6.66667" stroke-linecap="square"/>
<path d="M85.4444 96.2222C85.4444 98.6768 87.4343 100.667 89.8889 100.667C92.3435 100.667 94.3333 98.6768 94.3333 96.2222H85.4444ZM85.4444 82.8889V96.2222H94.3333V82.8889H85.4444Z" fill="#FFDD2B"/>
<path d="M127.667 114C127.667 116.455 129.657 118.444 132.111 118.444C134.566 118.444 136.556 116.455 136.556 114H127.667ZM127.667 82.8889V114H136.556V82.8889H127.667Z" fill="#FFDD2B"/>
<path d="M78.7778 136.222C78.7778 138.677 80.7676 140.667 83.2222 140.667C85.6768 140.667 87.6667 138.677 87.6667 136.222H78.7778ZM78.7778 82.8889V136.222H87.6667V82.8889H78.7778Z" fill="#FFDD2B"/>
<path d="M90.5525 17.2344C90.5525 16.8281 90.5916 16.4245 90.6697 16.0234C90.753 15.6224 90.8754 15.2422 91.0369 14.8828C91.2035 14.5234 91.4093 14.1927 91.6541 13.8906C91.8989 13.5885 92.1827 13.3281 92.5056 13.1094C93.1983 12.6406 94.003 12.4062 94.9197 12.4062C96.3051 12.4062 97.3989 12.901 98.2009 13.8906C98.9353 14.7969 99.3025 15.9141 99.3025 17.2422C99.3025 18.5807 98.9353 19.7188 98.2009 20.6562C97.3989 21.6771 96.3051 22.1875 94.9197 22.1875C93.5395 22.1875 92.4457 21.6693 91.6384 20.6328C90.9145 19.6953 90.5525 18.5625 90.5525 17.2344ZM94.0056 21.1484C94.2712 21.263 94.5785 21.3203 94.9275 21.3203C95.2817 21.3203 95.5916 21.2656 95.8572 21.1562C96.1228 21.0417 96.352 20.8854 96.5447 20.6875C96.7374 20.4896 96.8962 20.2604 97.0212 20C97.1515 19.7344 97.2556 19.4505 97.3337 19.1484C97.4744 18.6068 97.5447 18.0729 97.5447 17.5469C97.5447 17.0156 97.5291 16.5885 97.4978 16.2656C97.4666 15.9375 97.4119 15.6276 97.3337 15.3359C97.2556 15.0391 97.1515 14.763 97.0212 14.5078C96.8962 14.2526 96.7374 14.0312 96.5447 13.8438C96.128 13.4479 95.5916 13.25 94.9353 13.25C93.7009 13.25 92.9041 13.9583 92.5447 15.375C92.4041 15.9115 92.3337 16.5339 92.3337 17.2422C92.3337 19.3672 92.891 20.6693 94.0056 21.1484ZM100.089 17.2344C100.089 16.8281 100.128 16.4245 100.206 16.0234C100.289 15.6224 100.412 15.2422 100.573 14.8828C100.74 14.5234 100.946 14.1927 101.19 13.8906C101.435 13.5885 101.719 13.3281 102.042 13.1094C102.735 12.6406 103.539 12.4062 104.456 12.4062C105.841 12.4062 106.935 12.901 107.737 13.8906C108.472 14.7969 108.839 15.9141 108.839 17.2422C108.839 18.5807 108.472 19.7188 107.737 20.6562C106.935 21.6771 105.841 22.1875 104.456 22.1875C103.076 22.1875 101.982 21.6693 101.175 20.6328C100.451 19.6953 100.089 18.5625 100.089 17.2344ZM103.542 21.1484C103.807 21.263 104.115 21.3203 104.464 21.3203C104.818 21.3203 105.128 21.2656 105.393 21.1562C105.659 21.0417 105.888 20.8854 106.081 20.6875C106.274 20.4896 106.432 20.2604 106.557 20C106.688 19.7344 106.792 19.4505 106.87 19.1484C107.011 18.6068 107.081 18.0729 107.081 17.5469C107.081 17.0156 107.065 16.5885 107.034 16.2656C107.003 15.9375 106.948 15.6276 106.87 15.3359C106.792 15.0391 106.688 14.763 106.557 14.5078C106.432 14.2526 106.274 14.0312 106.081 13.8438C105.664 13.4479 105.128 13.25 104.472 13.25C103.237 13.25 102.44 13.9583 102.081 15.375C101.94 15.9115 101.87 16.5339 101.87 17.2422C101.87 19.3672 102.427 20.6693 103.542 21.1484ZM114.586 22.1875C113.622 22.1875 112.807 21.8385 112.141 21.1406V24.5781C112.141 25.0938 112.247 25.4167 112.461 25.5469C112.612 25.6406 113.01 25.7161 113.656 25.7734V26.4219H109.281V25.7812L109.297 25.7734C109.823 25.7266 110.143 25.6589 110.258 25.5703C110.451 25.4141 110.547 25.0833 110.547 24.5781V14.5078C110.547 13.9974 110.487 13.6823 110.367 13.5625C110.253 13.4427 110.104 13.362 109.922 13.3203C109.745 13.2734 109.503 13.237 109.195 13.2109V12.5625H111.227C111.549 12.5625 111.914 12.5469 112.32 12.5156C113.154 12.4427 113.794 12.4062 114.242 12.4062C114.69 12.4062 115.125 12.4714 115.547 12.6016C115.969 12.7266 116.346 12.9036 116.68 13.1328C117.013 13.3568 117.302 13.625 117.547 13.9375C117.792 14.2448 117.995 14.5833 118.156 14.9531C118.474 15.6719 118.633 16.4089 118.633 17.1641C118.633 17.9141 118.552 18.5807 118.391 19.1641C118.229 19.7422 117.982 20.2552 117.648 20.7031C116.919 21.6927 115.898 22.1875 114.586 22.1875ZM116.867 17.3594C116.867 14.6094 115.969 13.2344 114.172 13.2344C112.969 13.2344 112.31 13.5677 112.195 14.2344C112.159 14.4271 112.141 14.6302 112.141 14.8438V19.1406C112.141 19.7552 112.367 20.2708 112.82 20.6875C113.284 21.1094 113.807 21.3203 114.391 21.3203C114.974 21.3203 115.417 21.2031 115.719 20.9688C116.026 20.7292 116.263 20.4193 116.43 20.0391C116.721 19.388 116.867 18.4948 116.867 17.3594ZM124.575 15.0156C124.773 14.7083 124.872 14.4323 124.872 14.1875C124.872 13.9375 124.724 13.7188 124.427 13.5312C124.135 13.3385 123.786 13.2422 123.38 13.2422C122.974 13.2422 122.661 13.2786 122.442 13.3516C122.224 13.4245 122.039 13.526 121.888 13.6562C121.591 13.9115 121.442 14.2526 121.442 14.6797C121.442 15.1953 121.875 15.6719 122.739 16.1094C122.989 16.2396 123.2 16.3438 123.372 16.4219C124.69 17.0156 125.526 17.4557 125.88 17.7422C126.234 18.0234 126.489 18.2943 126.646 18.5547C126.807 18.8151 126.888 19.138 126.888 19.5234C126.888 19.9089 126.781 20.2708 126.567 20.6094C126.354 20.9479 126.07 21.2344 125.716 21.4688C124.997 21.9479 124.133 22.1875 123.122 22.1875C122.179 22.1875 121.357 21.9948 120.653 21.6094C119.883 21.1979 119.508 20.6745 119.528 20.0391C119.539 19.6641 119.7 19.3281 120.013 19.0312C120.294 18.7656 120.63 18.5885 121.021 18.5L121.364 18.8984C121.166 19.1432 121.067 19.4714 121.067 19.8828C121.067 20.2422 121.255 20.5625 121.63 20.8438C122.047 21.1615 122.578 21.3203 123.224 21.3203C123.875 21.3203 124.385 21.1745 124.755 20.8828C125.13 20.5911 125.317 20.2005 125.317 19.7109C125.317 19.138 124.838 18.6328 123.88 18.1953C123.594 18.0651 123.359 17.9635 123.177 17.8906C122.995 17.8125 122.88 17.763 122.833 17.7422C122.786 17.7214 122.656 17.6641 122.442 17.5703C122.234 17.4714 121.961 17.3255 121.622 17.1328C121.289 16.9401 120.995 16.7292 120.739 16.5C120.192 16.0156 119.919 15.4688 119.919 14.8594C119.919 14.1042 120.252 13.5 120.919 13.0469C121.554 12.6198 122.398 12.4062 123.45 12.4062C124.263 12.4062 124.932 12.5677 125.458 12.8906C125.989 13.2135 126.255 13.6146 126.255 14.0938C126.255 14.3958 126.112 14.6719 125.825 14.9219C125.575 15.1354 125.307 15.2734 125.021 15.3359L124.575 15.0156ZM128.104 18.8047C128.062 15.6224 127.822 13.0911 127.385 11.2109C127.286 10.7839 127.171 10.4036 127.041 10.0703L128.471 8.67188L129.862 10.0703C129.445 11.1849 129.153 12.974 128.987 15.4375C128.908 16.526 128.864 17.6484 128.854 18.8047H128.104ZM128.51 19.6406L129.901 21.0391L128.51 22.4531L127.088 21.0391L128.51 19.6406ZM18.5469 41.5312C19.2031 40.8854 19.6328 40.3646 19.8359 39.9688C20.0443 39.5729 20.1901 39.2161 20.2734 38.8984C20.362 38.5807 20.4271 38.2266 20.4688 37.8359C20.5365 37.263 20.5703 36.5365 20.5703 35.6562C20.5703 34.7708 20.5599 34.2292 20.5391 34.0312C20.5182 33.8281 20.4661 33.6719 20.3828 33.5625C20.3047 33.4479 20.1823 33.3698 20.0156 33.3281C19.8542 33.2812 19.6328 33.2448 19.3516 33.2188V32.5625H23.3594V33.2188C23.0781 33.2552 22.8542 33.2943 22.6875 33.3359C22.526 33.3724 22.4036 33.4427 22.3203 33.5469C22.1901 33.7083 22.125 34.1354 22.125 34.8281C22.125 35.5156 22.1328 36.1172 22.1484 36.6328C22.1641 37.1432 22.1979 37.599 22.25 38C22.3021 38.3958 22.3724 38.7474 22.4609 39.0547C22.5547 39.362 22.6771 39.651 22.8281 39.9219C23.0938 40.3958 23.5365 40.9323 24.1562 41.5312C24.7865 40.901 25.2396 40.3125 25.5156 39.7656C25.7969 39.1979 25.9688 38.612 26.0312 38.0078C26.125 37.1589 26.1719 36.3099 26.1719 35.4609C26.1719 34.612 26.1641 34.1068 26.1484 33.9453C26.1328 33.7786 26.0859 33.6458 26.0078 33.5469C25.8672 33.3802 25.513 33.2708 24.9453 33.2188V32.5625H28.8594V33.2188C28.3438 33.2865 28.026 33.388 27.9062 33.5234C27.7812 33.6745 27.7188 34.1146 27.7188 34.8438C27.7188 35.5729 27.6927 36.25 27.6406 36.875C27.5938 37.4948 27.513 38.0521 27.3984 38.5469C27.2839 39.0365 27.1354 39.4766 26.9531 39.8672C26.776 40.2526 26.5547 40.6042 26.2891 40.9219C25.8151 41.4948 25.1042 42.0651 24.1562 42.6328C23.4688 42.1797 22.9531 41.7656 22.6094 41.3906C22.0312 40.7552 21.6146 40.125 21.3594 39.5C21.0677 40.1667 20.7552 40.6823 20.4219 41.0469C19.8542 41.6667 19.2292 42.1953 18.5469 42.6328C17.599 42.0651 16.888 41.4948 16.4141 40.9219C15.6536 40.0052 15.2031 38.6562 15.0625 36.875C15.0104 36.25 14.9844 35.6641 14.9844 35.1172C14.9844 34.5651 14.974 34.1979 14.9531 34.0156C14.9375 33.8281 14.8932 33.6823 14.8203 33.5781C14.7005 33.4115 14.375 33.2917 13.8438 33.2188V32.5625H17.7578V33.2188C17.1849 33.2656 16.8281 33.3854 16.6875 33.5781C16.5781 33.724 16.5234 34.0911 16.5234 34.6797C16.5234 35.263 16.5286 35.8125 16.5391 36.3281C16.5547 36.8385 16.5833 37.2995 16.625 37.7109C16.6719 38.1224 16.7396 38.4948 16.8281 38.8281C16.9167 39.1562 17.0365 39.4688 17.1875 39.7656C17.4688 40.3177 17.9219 40.9062 18.5469 41.5312ZM36.5831 40.8359C35.8696 41.7161 34.7993 42.1562 33.3722 42.1562C31.9972 42.1562 30.9217 41.7109 30.1456 40.8203C29.4008 39.9609 29.0284 38.8255 29.0284 37.4141C29.0284 35.9609 29.4425 34.7604 30.2706 33.8125C31.0935 32.875 32.1482 32.4062 33.4347 32.4062C34.4191 32.4062 35.1873 32.6146 35.7394 33.0312C36.2654 33.4219 36.5284 33.9583 36.5284 34.6406C36.5284 35.5208 36.1014 36.263 35.2472 36.8672C34.2524 37.5703 32.7472 37.9297 30.7316 37.9453C30.9139 40.0755 31.8774 41.1406 33.6222 41.1406C34.7159 41.1406 35.5545 40.8906 36.1378 40.3906L36.5831 40.8359ZM30.7081 37.1094C32.5623 37.0729 33.8175 36.6328 34.4738 35.7891C34.7133 35.4766 34.8331 35.0885 34.8331 34.625C34.8331 34.0208 34.5727 33.6042 34.0519 33.375C33.8488 33.2865 33.5961 33.2422 33.2941 33.2422C32.992 33.2422 32.7238 33.2969 32.4894 33.4062C32.255 33.5104 32.0441 33.6562 31.8566 33.8438C31.6691 34.026 31.505 34.2422 31.3644 34.4922C31.2238 34.737 31.1066 35.0026 31.0128 35.2891C30.8201 35.8776 30.7185 36.4844 30.7081 37.1094ZM47.0306 35.0156C47.2285 34.7083 47.3275 34.4323 47.3275 34.1875C47.3275 33.9375 47.1791 33.7188 46.8822 33.5312C46.5905 33.3385 46.2416 33.2422 45.8353 33.2422C45.4291 33.2422 45.1166 33.2786 44.8978 33.3516C44.6791 33.4245 44.4942 33.526 44.3431 33.6562C44.0462 33.9115 43.8978 34.2526 43.8978 34.6797C43.8978 35.1953 44.3301 35.6719 45.1947 36.1094C45.4447 36.2396 45.6556 36.3438 45.8275 36.4219C47.1452 37.0156 47.9811 37.4557 48.3353 37.7422C48.6895 38.0234 48.9447 38.2943 49.1009 38.5547C49.2624 38.8151 49.3431 39.138 49.3431 39.5234C49.3431 39.9089 49.2364 40.2708 49.0228 40.6094C48.8093 40.9479 48.5254 41.2344 48.1712 41.4688C47.4525 41.9479 46.5879 42.1875 45.5775 42.1875C44.6348 42.1875 43.8119 41.9948 43.1087 41.6094C42.3379 41.1979 41.9629 40.6745 41.9837 40.0391C41.9942 39.6641 42.1556 39.3281 42.4681 39.0312C42.7494 38.7656 43.0853 38.5885 43.4759 38.5L43.8197 38.8984C43.6218 39.1432 43.5228 39.4714 43.5228 39.8828C43.5228 40.2422 43.7103 40.5625 44.0853 40.8438C44.502 41.1615 45.0332 41.3203 45.6791 41.3203C46.3301 41.3203 46.8405 41.1745 47.2103 40.8828C47.5853 40.5911 47.7728 40.2005 47.7728 39.7109C47.7728 39.138 47.2936 38.6328 46.3353 38.1953C46.0489 38.0651 45.8145 37.9635 45.6322 37.8906C45.4499 37.8125 45.3353 37.763 45.2884 37.7422C45.2416 37.7214 45.1114 37.6641 44.8978 37.5703C44.6895 37.4714 44.416 37.3255 44.0775 37.1328C43.7442 36.9401 43.4499 36.7292 43.1947 36.5C42.6478 36.0156 42.3744 35.4688 42.3744 34.8594C42.3744 34.1042 42.7077 33.5 43.3744 33.0469C44.0098 32.6198 44.8535 32.4062 45.9056 32.4062C46.7181 32.4062 47.3874 32.5677 47.9134 32.8906C48.4447 33.2135 48.7103 33.6146 48.7103 34.0938C48.7103 34.3958 48.5671 34.6719 48.2806 34.9219C48.0306 35.1354 47.7624 35.2734 47.4759 35.3359L47.0306 35.0156ZM54.7544 42.1875C53.7908 42.1875 52.9757 41.8385 52.3091 41.1406V44.5781C52.3091 45.0938 52.4158 45.4167 52.6294 45.5469C52.7804 45.6406 53.1789 45.7161 53.8247 45.7734V46.4219H49.4497V45.7812L49.4653 45.7734C49.9914 45.7266 50.3117 45.6589 50.4263 45.5703C50.619 45.4141 50.7153 45.0833 50.7153 44.5781V34.5078C50.7153 33.9974 50.6554 33.6823 50.5356 33.5625C50.421 33.4427 50.2726 33.362 50.0903 33.3203C49.9132 33.2734 49.671 33.237 49.3638 33.2109V32.5625H51.395C51.7179 32.5625 52.0825 32.5469 52.4888 32.5156C53.3221 32.4427 53.9627 32.4062 54.4106 32.4062C54.8585 32.4062 55.2934 32.4714 55.7153 32.6016C56.1372 32.7266 56.5148 32.9036 56.8481 33.1328C57.1815 33.3568 57.4705 33.625 57.7153 33.9375C57.9601 34.2448 58.1632 34.5833 58.3247 34.9531C58.6424 35.6719 58.8013 36.4089 58.8013 37.1641C58.8013 37.9141 58.7205 38.5807 58.5591 39.1641C58.3976 39.7422 58.1502 40.2552 57.8169 40.7031C57.0877 41.6927 56.0669 42.1875 54.7544 42.1875ZM57.0356 37.3594C57.0356 34.6094 56.1372 33.2344 54.3403 33.2344C53.1372 33.2344 52.4783 33.5677 52.3638 34.2344C52.3273 34.4271 52.3091 34.6302 52.3091 34.8438V39.1406C52.3091 39.7552 52.5356 40.2708 52.9888 40.6875C53.4523 41.1094 53.9757 41.3203 54.5591 41.3203C55.1424 41.3203 55.5851 41.2031 55.8872 40.9688C56.1945 40.7292 56.4315 40.4193 56.5981 40.0391C56.8898 39.388 57.0356 38.4948 57.0356 37.3594ZM59.6969 29.4453L61.1188 28.0469L62.5094 29.4453L61.1188 30.8594L59.6969 29.4453ZM59.0484 41.3516L59.3219 41.3125C59.5458 41.2812 59.7281 41.25 59.8688 41.2188C60.0094 41.1823 60.1188 41.1198 60.1969 41.0312C60.3323 40.8698 60.4 40.5 60.4 39.9219V34.625C60.4 34.0312 60.3375 33.6745 60.2125 33.5547C60.0875 33.4297 59.9365 33.3516 59.7594 33.3203C59.5823 33.2891 59.3453 33.2604 59.0484 33.2344V32.5625H63.3219V33.2344C63.025 33.2656 62.788 33.2969 62.6109 33.3281C62.4339 33.3594 62.2984 33.4193 62.2047 33.5078C62.0536 33.6484 61.9781 34.0208 61.9781 34.625V39.9219C61.9781 40.5156 62.025 40.8672 62.1188 40.9766C62.2125 41.0859 62.3271 41.1589 62.4625 41.1953C62.6031 41.2318 62.788 41.2682 63.0172 41.3047L63.3219 41.3516V42H59.0484V41.3516ZM63.2722 41.3516L63.5456 41.3125C63.7696 41.2812 63.9519 41.25 64.0925 41.2188C64.2331 41.1823 64.3425 41.1198 64.4206 41.0312C64.556 40.8698 64.6237 40.5026 64.6237 39.9297V30.5312C64.6237 29.9375 64.5612 29.5833 64.4362 29.4688C64.3112 29.349 64.1602 29.2734 63.9831 29.2422C63.806 29.2057 63.5691 29.1745 63.2722 29.1484V28.4844H66.2019V39.9297C66.2019 40.4714 66.2904 40.8281 66.4675 41C66.5977 41.1302 66.9102 41.2292 67.405 41.2969L67.78 41.3516V42H63.2722V41.3516ZM67.5116 41.3516L67.785 41.3125C68.009 41.2812 68.1912 41.25 68.3319 41.2188C68.4725 41.1823 68.5819 41.1198 68.66 41.0312C68.7954 40.8698 68.8631 40.5026 68.8631 39.9297V30.5312C68.8631 29.9375 68.8006 29.5833 68.6756 29.4688C68.5506 29.349 68.3996 29.2734 68.2225 29.2422C68.0454 29.2057 67.8084 29.1745 67.5116 29.1484V28.4844H70.4412V39.9297C70.4412 40.4714 70.5298 40.8281 70.7069 41C70.8371 41.1302 71.1496 41.2292 71.6444 41.2969L72.0194 41.3516V42H67.5116V41.3516ZM79.3994 40.8359C78.6858 41.7161 77.6155 42.1562 76.1884 42.1562C74.8134 42.1562 73.7379 41.7109 72.9619 40.8203C72.2171 39.9609 71.8447 38.8255 71.8447 37.4141C71.8447 35.9609 72.2588 34.7604 73.0869 33.8125C73.9098 32.875 74.9645 32.4062 76.2509 32.4062C77.2353 32.4062 78.0035 32.6146 78.5556 33.0312C79.0817 33.4219 79.3447 33.9583 79.3447 34.6406C79.3447 35.5208 78.9176 36.263 78.0634 36.8672C77.0686 37.5703 75.5634 37.9297 73.5478 37.9453C73.7301 40.0755 74.6936 41.1406 76.4384 41.1406C77.5322 41.1406 78.3707 40.8906 78.9541 40.3906L79.3994 40.8359ZM73.5244 37.1094C75.3785 37.0729 76.6338 36.6328 77.29 35.7891C77.5296 35.4766 77.6494 35.0885 77.6494 34.625C77.6494 34.0208 77.389 33.6042 76.8681 33.375C76.665 33.2865 76.4124 33.2422 76.1103 33.2422C75.8082 33.2422 75.54 33.2969 75.3056 33.4062C75.0713 33.5104 74.8603 33.6562 74.6728 33.8438C74.4853 34.026 74.3213 34.2422 74.1806 34.4922C74.04 34.737 73.9228 35.0026 73.8291 35.2891C73.6364 35.8776 73.5348 36.4844 73.5244 37.1094ZM86.5762 32.9766C85.769 30.5807 84.1518 29.1146 81.7247 28.5781L81.8887 27.8906C84.2794 28.2448 86.0789 29.2552 87.2872 30.9219C88.3705 32.4219 88.9122 34.2839 88.9122 36.5078C88.9122 38.2578 88.5137 39.6432 87.7169 40.6641C86.92 41.6797 85.8523 42.1875 84.5137 42.1875C83.2325 42.1875 82.1856 41.6719 81.3731 40.6406C80.6179 39.6927 80.2403 38.5677 80.2403 37.2656C80.2403 35.9479 80.5919 34.8203 81.295 33.8828C82.071 32.8516 83.1283 32.3359 84.4669 32.3359C85.295 32.3359 85.9981 32.5495 86.5762 32.9766ZM87.1309 36.7031C87.1309 34.3542 86.2924 33.1797 84.6153 33.1797C83.6726 33.1797 82.9877 33.6042 82.5606 34.4531C82.2065 35.1406 82.0294 36.0859 82.0294 37.2891C82.0294 39.0703 82.4617 40.2917 83.3262 40.9531C83.6492 41.1979 84.0658 41.3203 84.5762 41.3203C85.0919 41.3203 85.519 41.2031 85.8575 40.9688C86.196 40.7344 86.4591 40.4115 86.6466 40C86.9695 39.2865 87.1309 38.1875 87.1309 36.7031ZM94.2659 41.3516C94.5003 41.2995 94.6852 41.2552 94.8206 41.2188C94.9613 41.1771 95.0654 41.1094 95.1331 41.0156C95.2477 40.8646 95.305 40.474 95.305 39.8438V33.5156H93.9691V32.7969C94.7295 32.6875 95.167 32.5755 95.2816 32.4609H95.2738C95.3883 32.3047 95.4899 31.9557 95.5784 31.4141C95.667 30.8724 95.7217 30.474 95.7425 30.2188L96.8753 29.75V32.5625H99.7034V33.5156H96.8753V39.8203C96.8753 40.3047 96.9092 40.6146 96.9769 40.75C97.0498 40.8802 97.1383 40.9766 97.2425 41.0391C97.3467 41.1016 97.4873 41.1484 97.6644 41.1797C97.9508 41.2318 98.4743 41.263 99.2347 41.2734V42H94.2659V41.3516ZM102.708 34.1875C103.177 33.2656 104.044 32.4844 105.31 31.8438C106.216 32.3281 106.904 32.8568 107.372 33.4297C108.138 34.3672 108.602 35.7344 108.763 37.5312C108.815 38.1615 108.841 38.7682 108.841 39.3516C108.841 39.9349 108.849 40.3307 108.865 40.5391C108.886 40.7474 108.93 40.9036 108.997 41.0078C109.065 41.112 109.162 41.1823 109.287 41.2188C109.417 41.25 109.544 41.276 109.669 41.2969C109.8 41.3177 109.891 41.3307 109.943 41.3359C110 41.3359 110.055 41.3411 110.107 41.3516V42H105.865V41.3516C106.162 41.3151 106.399 41.2812 106.576 41.25C106.753 41.2135 106.888 41.1484 106.982 41.0547C107.133 40.9036 107.208 40.4844 107.208 39.7969V38.8828C107.208 37.7005 107.18 36.8776 107.122 36.4141C107.065 35.9453 106.992 35.5625 106.904 35.2656C106.82 34.9688 106.706 34.6875 106.56 34.4219C106.284 33.9271 105.844 33.4349 105.24 32.9453C104.464 33.4193 103.888 33.9062 103.513 34.4062C102.977 35.125 102.708 36.013 102.708 37.0703V39.7188C102.708 40.0781 102.719 40.3594 102.74 40.5625C102.761 40.7604 102.815 40.9115 102.904 41.0156C102.997 41.1198 103.133 41.1927 103.31 41.2344C103.492 41.2708 103.742 41.3099 104.06 41.3516V42H99.7709V41.3594L99.7866 41.3516C100.094 41.3151 100.336 41.2786 100.513 41.2422C100.69 41.2005 100.823 41.1328 100.912 41.0391C101.047 40.8932 101.115 40.5339 101.115 39.9609V30.4922C101.115 29.9141 101.052 29.5677 100.927 29.4531C100.807 29.3385 100.659 29.2656 100.482 29.2344C100.305 29.1979 100.068 29.1667 99.7709 29.1406V28.4844H104.06V29.1406C103.768 29.1719 103.534 29.2031 103.357 29.2344C103.18 29.2656 103.044 29.3229 102.951 29.4062C102.789 29.5417 102.708 29.9036 102.708 30.4922V34.1875ZM117.815 40.8359C117.101 41.7161 116.031 42.1562 114.604 42.1562C113.229 42.1562 112.154 41.7109 111.378 40.8203C110.633 39.9609 110.26 38.8255 110.26 37.4141C110.26 35.9609 110.674 34.7604 111.503 33.8125C112.325 32.875 113.38 32.4062 114.667 32.4062C115.651 32.4062 116.419 32.6146 116.971 33.0312C117.497 33.4219 117.76 33.9583 117.76 34.6406C117.76 35.5208 117.333 36.263 116.479 36.8672C115.484 37.5703 113.979 37.9297 111.963 37.9453C112.146 40.0755 113.109 41.1406 114.854 41.1406C115.948 41.1406 116.786 40.8906 117.37 40.3906L117.815 40.8359ZM111.94 37.1094C113.794 37.0729 115.049 36.6328 115.706 35.7891C115.945 35.4766 116.065 35.0885 116.065 34.625C116.065 34.0208 115.805 33.6042 115.284 33.375C115.081 33.2865 114.828 33.2422 114.526 33.2422C114.224 33.2422 113.956 33.2969 113.721 33.4062C113.487 33.5104 113.276 33.6562 113.088 33.8438C112.901 34.026 112.737 34.2422 112.596 34.4922C112.456 34.737 112.338 35.0026 112.245 35.2891C112.052 35.8776 111.95 36.4844 111.94 37.1094ZM127.161 41.1875C128.192 41.1875 129.143 40.8516 130.012 40.1797L130.458 40.6094C129.848 41.349 129.002 41.8385 127.919 42.0781C127.575 42.151 127.231 42.1875 126.887 42.1875C125.539 42.1875 124.466 41.6875 123.669 40.6875C122.934 39.7552 122.567 38.6094 122.567 37.25C122.567 35.8385 122.94 34.6719 123.684 33.75C124.486 32.7656 125.565 32.2734 126.919 32.2734C127.585 32.2734 128.229 32.4062 128.848 32.6719C128.942 32.7135 129.01 32.737 129.052 32.7422C129.39 32.6536 129.591 32.4427 129.653 32.1094H130.27V35.4531H129.622C129.341 33.8854 128.479 33.1016 127.036 33.1016C126.109 33.1016 125.414 33.5312 124.95 34.3906C124.549 35.1198 124.348 36.0781 124.348 37.2656C124.348 39.3021 124.966 40.5573 126.2 41.0312C126.476 41.1354 126.796 41.1875 127.161 41.1875ZM133.611 34.0156C133.523 34.1771 133.478 34.3646 133.478 34.5781C133.478 34.7865 133.577 35.0391 133.775 35.3359L133.244 35.6562C132.629 35.5521 132.184 35.2943 131.908 34.8828C131.809 34.7422 131.76 34.5599 131.76 34.3359C131.76 34.112 131.851 33.8802 132.033 33.6406C132.215 33.3958 132.471 33.1823 132.799 33C133.518 32.6042 134.424 32.4062 135.518 32.4062C137.299 32.4062 138.406 32.9219 138.838 33.9531C138.973 34.276 139.041 34.6328 139.041 35.0234V39.9219C139.041 40.526 139.098 40.8906 139.213 41.0156C139.327 41.1354 139.465 41.2135 139.627 41.25C139.794 41.2865 140.015 41.3177 140.291 41.3438V42H138.353C137.968 42 137.528 42.0208 137.033 42.0625C136.018 42.1562 135.236 42.2031 134.689 42.2031C134.143 42.2031 133.661 42.1302 133.244 41.9844C132.827 41.8385 132.486 41.6458 132.221 41.4062C131.705 40.9427 131.447 40.3516 131.447 39.6328C131.447 38.8568 131.898 38.1406 132.799 37.4844C133.882 36.6823 135.437 36.2604 137.463 36.2188V34.8516C137.463 33.7682 136.741 33.2266 135.299 33.2266C134.476 33.2266 133.913 33.4896 133.611 34.0156ZM137.463 37.0312H137.478L137.463 37.0234V37.0312ZM137.463 37.0312C134.645 37.1979 133.236 38.0651 133.236 39.6328C133.236 40.4609 133.656 40.9948 134.494 41.2344C134.754 41.3125 135.08 41.3516 135.471 41.3516C135.861 41.3516 136.192 41.3307 136.463 41.2891C136.739 41.2422 136.95 41.1615 137.096 41.0469C137.247 40.9323 137.346 40.776 137.393 40.5781C137.439 40.375 137.463 40.1146 137.463 39.7969V37.0312ZM144.944 42.4062C143.955 41.8125 143.226 41.2604 142.757 40.75C141.934 39.849 141.439 38.5417 141.272 36.8281C141.21 36.2135 141.179 35.6406 141.179 35.1094C141.179 34.5729 141.174 34.2161 141.163 34.0391C141.153 33.8568 141.111 33.7109 141.038 33.6016C140.913 33.4036 140.595 33.2812 140.085 33.2344V32.5625H143.929V33.2344C143.413 33.2865 143.08 33.401 142.929 33.5781C142.809 33.7292 142.749 34.0938 142.749 34.6719C142.749 35.25 142.757 35.7891 142.772 36.2891C142.793 36.7891 142.83 37.237 142.882 37.6328C142.934 38.0286 143.009 38.3854 143.108 38.7031C143.207 39.0156 143.34 39.3125 143.507 39.5938C143.809 40.1146 144.288 40.6823 144.944 41.2969C145.616 40.6667 146.064 40.1562 146.288 39.7656C146.517 39.3698 146.681 39.0156 146.78 38.7031C146.879 38.3854 146.955 38.0286 147.007 37.6328C147.095 36.9609 147.14 36.2214 147.14 35.4141C147.14 34.6016 147.129 34.1172 147.108 33.9609C147.088 33.8047 147.038 33.6771 146.96 33.5781C146.809 33.401 146.478 33.2865 145.968 33.2344V32.5625H149.796V33.2344C149.286 33.3073 148.986 33.4115 148.897 33.5469C148.809 33.6771 148.754 33.8307 148.733 34.0078C148.718 34.1849 148.71 34.5469 148.71 35.0938C148.71 35.6354 148.679 36.2135 148.616 36.8281C148.559 37.4427 148.465 37.9896 148.335 38.4688C148.21 38.9479 148.049 39.3724 147.851 39.7422C147.653 40.1068 147.413 40.4427 147.132 40.75C146.663 41.2604 145.934 41.8125 144.944 42.4062ZM149.848 41.3516L150.121 41.3125C150.345 41.2812 150.527 41.25 150.668 41.2188C150.809 41.1823 150.918 41.1198 150.996 41.0312C151.132 40.8698 151.199 40.5026 151.199 39.9297V30.5312C151.199 29.9375 151.137 29.5833 151.012 29.4688C150.887 29.349 150.736 29.2734 150.559 29.2422C150.382 29.2057 150.145 29.1745 149.848 29.1484V28.4844H152.777V39.9297C152.777 40.4714 152.866 40.8281 153.043 41C153.173 41.1302 153.486 41.2292 153.981 41.2969L154.356 41.3516V42H149.848V41.3516ZM160.689 32.9766C159.881 30.5807 158.264 29.1146 155.837 28.5781L156.001 27.8906C158.392 28.2448 160.191 29.2552 161.4 30.9219C162.483 32.4219 163.025 34.2839 163.025 36.5078C163.025 38.2578 162.626 39.6432 161.829 40.6641C161.033 41.6797 159.965 42.1875 158.626 42.1875C157.345 42.1875 156.298 41.6719 155.486 40.6406C154.73 39.6927 154.353 38.5677 154.353 37.2656C154.353 35.9479 154.704 34.8203 155.408 33.8828C156.184 32.8516 157.241 32.3359 158.579 32.3359C159.408 32.3359 160.111 32.5495 160.689 32.9766ZM161.243 36.7031C161.243 34.3542 160.405 33.1797 158.728 33.1797C157.785 33.1797 157.1 33.6042 156.673 34.4531C156.319 35.1406 156.142 36.0859 156.142 37.2891C156.142 39.0703 156.574 40.2917 157.439 40.9531C157.762 41.1979 158.178 41.3203 158.689 41.3203C159.204 41.3203 159.631 41.2031 159.97 40.9688C160.309 40.7344 160.572 40.4115 160.759 40C161.082 39.2865 161.243 38.1875 161.243 36.7031ZM169.467 35.3984C169.759 35.1172 169.905 34.6901 169.905 34.1172C169.905 33.8359 169.772 33.6146 169.506 33.4531C169.282 33.3229 168.941 33.2578 168.483 33.2578C167.493 33.2578 166.998 33.5807 166.998 34.2266V40.1641C166.998 40.388 167.019 40.5729 167.061 40.7188C167.108 40.8646 167.209 40.9818 167.366 41.0703C167.636 41.2266 168.261 41.3203 169.241 41.3516V42H164.022V41.3594L164.038 41.3516C164.652 41.2891 165.019 41.2031 165.139 41.0938C165.264 40.9792 165.34 40.849 165.366 40.7031C165.397 40.5521 165.413 40.3516 165.413 40.1016V34.6875C165.413 34.1198 165.355 33.7682 165.241 33.6328C165.131 33.4974 164.996 33.4036 164.834 33.3516C164.673 33.2995 164.459 33.2578 164.194 33.2266V32.5625H165.811C166.452 32.5625 166.907 32.5495 167.178 32.5234C167.449 32.4974 167.663 32.4792 167.819 32.4688C168.288 32.4271 168.668 32.4062 168.959 32.4062C169.256 32.4062 169.561 32.4297 169.873 32.4766C170.186 32.5234 170.462 32.6042 170.702 32.7188C171.228 32.9688 171.491 33.3568 171.491 33.8828C171.491 34.3047 171.319 34.6979 170.975 35.0625C170.652 35.4062 170.293 35.6328 169.897 35.7422L169.467 35.3984ZM172.097 37.2344C172.097 36.8281 172.136 36.4245 172.214 36.0234C172.298 35.6224 172.42 35.2422 172.582 34.8828C172.748 34.5234 172.954 34.1927 173.199 33.8906C173.444 33.5885 173.727 33.3281 174.05 33.1094C174.743 32.6406 175.548 32.4062 176.464 32.4062C177.85 32.4062 178.944 32.901 179.746 33.8906C180.48 34.7969 180.847 35.9141 180.847 37.2422C180.847 38.5807 180.48 39.7188 179.746 40.6562C178.944 41.6771 177.85 42.1875 176.464 42.1875C175.084 42.1875 173.99 41.6693 173.183 40.6328C172.459 39.6953 172.097 38.5625 172.097 37.2344ZM175.55 41.1484C175.816 41.263 176.123 41.3203 176.472 41.3203C176.826 41.3203 177.136 41.2656 177.402 41.1562C177.667 41.0417 177.897 40.8854 178.089 40.6875C178.282 40.4896 178.441 40.2604 178.566 40C178.696 39.7344 178.8 39.4505 178.878 39.1484C179.019 38.6068 179.089 38.0729 179.089 37.5469C179.089 37.0156 179.074 36.5885 179.042 36.2656C179.011 35.9375 178.957 35.6276 178.878 35.3359C178.8 35.0391 178.696 34.763 178.566 34.5078C178.441 34.2526 178.282 34.0312 178.089 33.8438C177.673 33.4479 177.136 33.25 176.48 33.25C175.246 33.25 174.449 33.9583 174.089 35.375C173.949 35.9115 173.878 36.5339 173.878 37.2422C173.878 39.3672 174.436 40.6693 175.55 41.1484ZM184.798 34.1875C185.271 33.2448 186.12 32.4635 187.344 31.8438C188.245 32.3229 188.938 32.849 189.423 33.4219C190.188 34.3438 190.652 35.7135 190.813 37.5312C190.865 38.1562 190.891 38.7604 190.891 39.3438C190.891 39.9271 190.902 40.3229 190.923 40.5312C190.943 40.7396 190.988 40.8984 191.055 41.0078C191.123 41.112 191.222 41.1823 191.352 41.2188C191.482 41.25 191.613 41.276 191.743 41.2969C191.873 41.3177 191.964 41.3307 192.016 41.3359C192.074 41.3359 192.131 41.3411 192.188 41.3516V42H187.915V41.3516C188.212 41.3151 188.449 41.2812 188.626 41.25C188.803 41.2135 188.938 41.1484 189.032 41.0547C189.183 40.9036 189.258 40.4844 189.258 39.7969V38.8906C189.258 37.6979 189.23 36.8724 189.173 36.4141C189.115 35.9505 189.042 35.5703 188.954 35.2734C188.87 34.9714 188.756 34.6875 188.61 34.4219C188.324 33.9219 187.876 33.4297 187.266 32.9453C185.62 33.9609 184.798 35.3359 184.798 37.0703V39.7188C184.798 40.4062 184.847 40.8177 184.946 40.9531C185.05 41.0885 185.178 41.1771 185.329 41.2188C185.48 41.2552 185.686 41.2917 185.946 41.3281L186.149 41.3516V42H181.876V41.3594C181.907 41.3438 181.946 41.3359 181.993 41.3359C182.045 41.3307 182.136 41.3203 182.266 41.3047C182.402 41.2839 182.54 41.2552 182.68 41.2188C182.826 41.1823 182.938 41.1198 183.016 41.0312C183.146 40.8906 183.212 40.5365 183.212 39.9688V34.3984C183.212 33.9245 183.152 33.6354 183.032 33.5312C182.912 33.4219 182.764 33.3516 182.587 33.3203C182.409 33.2839 182.173 33.2552 181.876 33.2344V32.5625H184.798V34.1875ZM197.807 39.6406L199.198 41.0391L197.807 42.4531L196.386 41.0391L197.807 39.6406ZM197.807 32.7109L199.198 34.1094L197.807 35.5234L196.386 34.1094L197.807 32.7109ZM201.914 35.6797C201.914 39.6797 202.948 42.5443 205.016 44.2734L204.562 44.7344C203.505 43.9583 202.594 42.9583 201.828 41.7344C200.766 40.0365 200.234 38.0599 200.234 35.8047C200.234 33.1276 201.078 30.8333 202.766 28.9219C203.349 28.2656 203.948 27.75 204.562 27.375L205.016 27.8438C203.13 29.4792 202.109 31.7031 201.953 34.5156C201.927 34.9323 201.914 35.3203 201.914 35.6797Z" fill="white"/>
</svg>
