<svg width="217" height="180" viewBox="0 0 217 180" fill="none" xmlns="http://www.w3.org/2000/svg">
<path d="M107 98L73 65" stroke="#AA3EFF" stroke-width="8.88889" stroke-linecap="square"/>
<mask id="mask0_3_120" style="mask-type:alpha" maskUnits="userSpaceOnUse" x="67" y="76" width="81" height="81">
<circle cx="107.667" cy="116.222" r="40" fill="#8C19E6"/>
</mask>
<g mask="url(#mask0_3_120)">
<rect width="86.6667" height="55.5556" transform="matrix(1 0 0 -1 63.2222 151.778)" fill="#AA3EFF"/>
</g>
<path d="M143.222 89.5556H72.1111" stroke="#AA3EFF" stroke-width="13.3333" stroke-linecap="square"/>
<path d="M121.287 112.333C119.68 109.549 117.19 107.381 114.211 106.172C111.232 104.963 107.936 104.782 104.843 105.657C101.75 106.533 99.037 108.416 97.1345 111.007C95.232 113.598 94.2483 116.75 94.3391 119.963C94.4298 123.177 95.59 126.268 97.6357 128.748C99.6815 131.227 102.496 132.954 105.633 133.654C108.771 134.353 112.052 133.987 114.958 132.611C117.863 131.236 120.227 128.93 121.675 126.06" stroke="white" stroke-width="6.66667" stroke-linecap="square"/>
<path d="M116.556 100.667L96.5555 136.222" stroke="white" stroke-width="6.66667" stroke-linecap="square"/>
<path d="M90.5525 17.2344C90.5525 16.8281 90.5916 16.4245 90.6697 16.0234C90.753 15.6224 90.8754 15.2422 91.0369 14.8828C91.2035 14.5234 91.4093 14.1927 91.6541 13.8906C91.8989 13.5885 92.1827 13.3281 92.5056 13.1094C93.1983 12.6406 94.003 12.4062 94.9197 12.4062C96.3051 12.4062 97.3989 12.901 98.2009 13.8906C98.9353 14.7969 99.3025 15.9141 99.3025 17.2422C99.3025 18.5807 98.9353 19.7188 98.2009 20.6562C97.3989 21.6771 96.3051 22.1875 94.9197 22.1875C93.5395 22.1875 92.4457 21.6693 91.6384 20.6328C90.9145 19.6953 90.5525 18.5625 90.5525 17.2344ZM94.0056 21.1484C94.2712 21.263 94.5785 21.3203 94.9275 21.3203C95.2817 21.3203 95.5916 21.2656 95.8572 21.1562C96.1228 21.0417 96.352 20.8854 96.5447 20.6875C96.7374 20.4896 96.8962 20.2604 97.0212 20C97.1515 19.7344 97.2556 19.4505 97.3337 19.1484C97.4744 18.6068 97.5447 18.0729 97.5447 17.5469C97.5447 17.0156 97.5291 16.5885 97.4978 16.2656C97.4666 15.9375 97.4119 15.6276 97.3337 15.3359C97.2556 15.0391 97.1515 14.763 97.0212 14.5078C96.8962 14.2526 96.7374 14.0312 96.5447 13.8438C96.128 13.4479 95.5916 13.25 94.9353 13.25C93.7009 13.25 92.9041 13.9583 92.5447 15.375C92.4041 15.9115 92.3337 16.5339 92.3337 17.2422C92.3337 19.3672 92.891 20.6693 94.0056 21.1484ZM100.089 17.2344C100.089 16.8281 100.128 16.4245 100.206 16.0234C100.289 15.6224 100.412 15.2422 100.573 14.8828C100.74 14.5234 100.946 14.1927 101.19 13.8906C101.435 13.5885 101.719 13.3281 102.042 13.1094C102.735 12.6406 103.539 12.4062 104.456 12.4062C105.841 12.4062 106.935 12.901 107.737 13.8906C108.472 14.7969 108.839 15.9141 108.839 17.2422C108.839 18.5807 108.472 19.7188 107.737 20.6562C106.935 21.6771 105.841 22.1875 104.456 22.1875C103.076 22.1875 101.982 21.6693 101.175 20.6328C100.451 19.6953 100.089 18.5625 100.089 17.2344ZM103.542 21.1484C103.807 21.263 104.115 21.3203 104.464 21.3203C104.818 21.3203 105.128 21.2656 105.393 21.1562C105.659 21.0417 105.888 20.8854 106.081 20.6875C106.274 20.4896 106.432 20.2604 106.557 20C106.688 19.7344 106.792 19.4505 106.87 19.1484C107.011 18.6068 107.081 18.0729 107.081 17.5469C107.081 17.0156 107.065 16.5885 107.034 16.2656C107.003 15.9375 106.948 15.6276 106.87 15.3359C106.792 15.0391 106.688 14.763 106.557 14.5078C106.432 14.2526 106.274 14.0312 106.081 13.8438C105.664 13.4479 105.128 13.25 104.472 13.25C103.237 13.25 102.44 13.9583 102.081 15.375C101.94 15.9115 101.87 16.5339 101.87 17.2422C101.87 19.3672 102.427 20.6693 103.542 21.1484ZM114.586 22.1875C113.622 22.1875 112.807 21.8385 112.141 21.1406V24.5781C112.141 25.0938 112.247 25.4167 112.461 25.5469C112.612 25.6406 113.01 25.7161 113.656 25.7734V26.4219H109.281V25.7812L109.297 25.7734C109.823 25.7266 110.143 25.6589 110.258 25.5703C110.451 25.4141 110.547 25.0833 110.547 24.5781V14.5078C110.547 13.9974 110.487 13.6823 110.367 13.5625C110.253 13.4427 110.104 13.362 109.922 13.3203C109.745 13.2734 109.503 13.237 109.195 13.2109V12.5625H111.227C111.549 12.5625 111.914 12.5469 112.32 12.5156C113.154 12.4427 113.794 12.4062 114.242 12.4062C114.69 12.4062 115.125 12.4714 115.547 12.6016C115.969 12.7266 116.346 12.9036 116.68 13.1328C117.013 13.3568 117.302 13.625 117.547 13.9375C117.792 14.2448 117.995 14.5833 118.156 14.9531C118.474 15.6719 118.633 16.4089 118.633 17.1641C118.633 17.9141 118.552 18.5807 118.391 19.1641C118.229 19.7422 117.982 20.2552 117.648 20.7031C116.919 21.6927 115.898 22.1875 114.586 22.1875ZM116.867 17.3594C116.867 14.6094 115.969 13.2344 114.172 13.2344C112.969 13.2344 112.31 13.5677 112.195 14.2344C112.159 14.4271 112.141 14.6302 112.141 14.8438V19.1406C112.141 19.7552 112.367 20.2708 112.82 20.6875C113.284 21.1094 113.807 21.3203 114.391 21.3203C114.974 21.3203 115.417 21.2031 115.719 20.9688C116.026 20.7292 116.263 20.4193 116.43 20.0391C116.721 19.388 116.867 18.4948 116.867 17.3594ZM124.575 15.0156C124.773 14.7083 124.872 14.4323 124.872 14.1875C124.872 13.9375 124.724 13.7188 124.427 13.5312C124.135 13.3385 123.786 13.2422 123.38 13.2422C122.974 13.2422 122.661 13.2786 122.442 13.3516C122.224 13.4245 122.039 13.526 121.888 13.6562C121.591 13.9115 121.442 14.2526 121.442 14.6797C121.442 15.1953 121.875 15.6719 122.739 16.1094C122.989 16.2396 123.2 16.3438 123.372 16.4219C124.69 17.0156 125.526 17.4557 125.88 17.7422C126.234 18.0234 126.489 18.2943 126.646 18.5547C126.807 18.8151 126.888 19.138 126.888 19.5234C126.888 19.9089 126.781 20.2708 126.567 20.6094C126.354 20.9479 126.07 21.2344 125.716 21.4688C124.997 21.9479 124.133 22.1875 123.122 22.1875C122.179 22.1875 121.357 21.9948 120.653 21.6094C119.883 21.1979 119.508 20.6745 119.528 20.0391C119.539 19.6641 119.7 19.3281 120.013 19.0312C120.294 18.7656 120.63 18.5885 121.021 18.5L121.364 18.8984C121.166 19.1432 121.067 19.4714 121.067 19.8828C121.067 20.2422 121.255 20.5625 121.63 20.8438C122.047 21.1615 122.578 21.3203 123.224 21.3203C123.875 21.3203 124.385 21.1745 124.755 20.8828C125.13 20.5911 125.317 20.2005 125.317 19.7109C125.317 19.138 124.838 18.6328 123.88 18.1953C123.594 18.0651 123.359 17.9635 123.177 17.8906C122.995 17.8125 122.88 17.763 122.833 17.7422C122.786 17.7214 122.656 17.6641 122.442 17.5703C122.234 17.4714 121.961 17.3255 121.622 17.1328C121.289 16.9401 120.995 16.7292 120.739 16.5C120.192 16.0156 119.919 15.4688 119.919 14.8594C119.919 14.1042 120.252 13.5 120.919 13.0469C121.554 12.6198 122.398 12.4062 123.45 12.4062C124.263 12.4062 124.932 12.5677 125.458 12.8906C125.989 13.2135 126.255 13.6146 126.255 14.0938C126.255 14.3958 126.112 14.6719 125.825 14.9219C125.575 15.1354 125.307 15.2734 125.021 15.3359L124.575 15.0156ZM128.104 18.8047C128.062 15.6224 127.822 13.0911 127.385 11.2109C127.286 10.7839 127.171 10.4036 127.041 10.0703L128.471 8.67188L129.862 10.0703C129.445 11.1849 129.153 12.974 128.987 15.4375C128.908 16.526 128.864 17.6484 128.854 18.8047H128.104ZM128.51 19.6406L129.901 21.0391L128.51 22.4531L127.088 21.0391L128.51 19.6406ZM9.01063 41.5312C9.66688 40.8854 10.0966 40.3646 10.2997 39.9688C10.508 39.5729 10.6539 39.2161 10.7372 38.8984C10.8257 38.5807 10.8908 38.2266 10.9325 37.8359C11.0002 37.263 11.0341 36.5365 11.0341 35.6562C11.0341 34.7708 11.0236 34.2292 11.0028 34.0312C10.982 33.8281 10.9299 33.6719 10.8466 33.5625C10.7684 33.4479 10.646 33.3698 10.4794 33.3281C10.3179 33.2812 10.0966 33.2448 9.81532 33.2188V32.5625H13.8231V33.2188C13.5419 33.2552 13.3179 33.2943 13.1513 33.3359C12.9898 33.3724 12.8674 33.4427 12.7841 33.5469C12.6539 33.7083 12.5888 34.1354 12.5888 34.8281C12.5888 35.5156 12.5966 36.1172 12.6122 36.6328C12.6278 37.1432 12.6617 37.599 12.7138 38C12.7658 38.3958 12.8361 38.7474 12.9247 39.0547C13.0184 39.362 13.1408 39.651 13.2919 39.9219C13.5575 40.3958 14.0002 40.9323 14.62 41.5312C15.2502 40.901 15.7033 40.3125 15.9794 39.7656C16.2606 39.1979 16.4325 38.612 16.495 38.0078C16.5888 37.1589 16.6356 36.3099 16.6356 35.4609C16.6356 34.612 16.6278 34.1068 16.6122 33.9453C16.5966 33.7786 16.5497 33.6458 16.4716 33.5469C16.3309 33.3802 15.9768 33.2708 15.4091 33.2188V32.5625H19.3231V33.2188C18.8075 33.2865 18.4898 33.388 18.37 33.5234C18.245 33.6745 18.1825 34.1146 18.1825 34.8438C18.1825 35.5729 18.1565 36.25 18.1044 36.875C18.0575 37.4948 17.9768 38.0521 17.8622 38.5469C17.7476 39.0365 17.5992 39.4766 17.4169 39.8672C17.2398 40.2526 17.0184 40.6042 16.7528 40.9219C16.2789 41.4948 15.5679 42.0651 14.62 42.6328C13.9325 42.1797 13.4169 41.7656 13.0731 41.3906C12.495 40.7552 12.0783 40.125 11.8231 39.5C11.5315 40.1667 11.219 40.6823 10.8856 41.0469C10.3179 41.6667 9.69292 42.1953 9.01063 42.6328C8.06271 42.0651 7.35177 41.4948 6.87782 40.9219C6.1174 40.0052 5.66688 38.6562 5.52625 36.875C5.47417 36.25 5.44813 35.6641 5.44813 35.1172C5.44813 34.5651 5.43771 34.1979 5.41688 34.0156C5.40125 33.8281 5.35698 33.6823 5.28407 33.5781C5.16427 33.4115 4.83875 33.2917 4.3075 33.2188V32.5625H8.22157V33.2188C7.64865 33.2656 7.29188 33.3854 7.15125 33.5781C7.04188 33.724 6.98719 34.0911 6.98719 34.6797C6.98719 35.263 6.9924 35.8125 7.00282 36.3281C7.01844 36.8385 7.04709 37.2995 7.08875 37.7109C7.13563 38.1224 7.20334 38.4948 7.29188 38.8281C7.38042 39.1562 7.50021 39.4688 7.65125 39.7656C7.9325 40.3177 8.38563 40.9062 9.01063 41.5312ZM27.0469 40.8359C26.3333 41.7161 25.263 42.1562 23.8359 42.1562C22.4609 42.1562 21.3854 41.7109 20.6094 40.8203C19.8646 39.9609 19.4922 38.8255 19.4922 37.4141C19.4922 35.9609 19.9063 34.7604 20.7344 33.8125C21.5573 32.875 22.612 32.4062 23.8984 32.4062C24.8828 32.4062 25.651 32.6146 26.2031 33.0312C26.7292 33.4219 26.9922 33.9583 26.9922 34.6406C26.9922 35.5208 26.5651 36.263 25.7109 36.8672C24.7161 37.5703 23.2109 37.9297 21.1953 37.9453C21.3776 40.0755 22.3411 41.1406 24.0859 41.1406C25.1797 41.1406 26.0182 40.8906 26.6016 40.3906L27.0469 40.8359ZM21.1719 37.1094C23.026 37.0729 24.2813 36.6328 24.9375 35.7891C25.1771 35.4766 25.2969 35.0885 25.2969 34.625C25.2969 34.0208 25.0365 33.6042 24.5156 33.375C24.3125 33.2865 24.0599 33.2422 23.7578 33.2422C23.4557 33.2422 23.1875 33.2969 22.9531 33.4062C22.7188 33.5104 22.5078 33.6562 22.3203 33.8438C22.1328 34.026 21.9688 34.2422 21.8281 34.4922C21.6875 34.737 21.5703 35.0026 21.4766 35.2891C21.2839 35.8776 21.1823 36.4844 21.1719 37.1094ZM36.3928 41.1875C37.4241 41.1875 38.3746 40.8516 39.2444 40.1797L39.6897 40.6094C39.0803 41.349 38.234 41.8385 37.1506 42.0781C36.8069 42.151 36.4631 42.1875 36.1194 42.1875C34.7704 42.1875 33.6975 41.6875 32.9006 40.6875C32.1663 39.7552 31.7991 38.6094 31.7991 37.25C31.7991 35.8385 32.1715 34.6719 32.9163 33.75C33.7183 32.7656 34.7965 32.2734 36.1506 32.2734C36.8173 32.2734 37.4605 32.4062 38.0803 32.6719C38.1741 32.7135 38.2418 32.737 38.2834 32.7422C38.622 32.6536 38.8225 32.4427 38.885 32.1094H39.5022V35.4531H38.8538C38.5725 33.8854 37.7105 33.1016 36.2678 33.1016C35.3407 33.1016 34.6454 33.5312 34.1819 34.3906C33.7808 35.1198 33.5803 36.0781 33.5803 37.2656C33.5803 39.3021 34.1975 40.5573 35.4319 41.0312C35.7079 41.1354 36.0282 41.1875 36.3928 41.1875ZM40.3041 37.2344C40.3041 36.8281 40.3431 36.4245 40.4213 36.0234C40.5046 35.6224 40.627 35.2422 40.7884 34.8828C40.9551 34.5234 41.1608 34.1927 41.4056 33.8906C41.6504 33.5885 41.9343 33.3281 42.2572 33.1094C42.9499 32.6406 43.7546 32.4062 44.6713 32.4062C46.0567 32.4062 47.1504 32.901 47.9525 33.8906C48.6869 34.7969 49.0541 35.9141 49.0541 37.2422C49.0541 38.5807 48.6869 39.7188 47.9525 40.6562C47.1504 41.6771 46.0567 42.1875 44.6713 42.1875C43.291 42.1875 42.1973 41.6693 41.39 40.6328C40.666 39.6953 40.3041 38.5625 40.3041 37.2344ZM43.7572 41.1484C44.0228 41.263 44.3301 41.3203 44.6791 41.3203C45.0332 41.3203 45.3431 41.2656 45.6088 41.1562C45.8744 41.0417 46.1035 40.8854 46.2963 40.6875C46.489 40.4896 46.6478 40.2604 46.7728 40C46.903 39.7344 47.0072 39.4505 47.0853 39.1484C47.2259 38.6068 47.2963 38.0729 47.2963 37.5469C47.2963 37.0156 47.2806 36.5885 47.2494 36.2656C47.2181 35.9375 47.1634 35.6276 47.0853 35.3359C47.0072 35.0391 46.903 34.763 46.7728 34.5078C46.6478 34.2526 46.489 34.0312 46.2963 33.8438C45.8796 33.4479 45.3431 33.25 44.6869 33.25C43.4525 33.25 42.6556 33.9583 42.2963 35.375C42.1556 35.9115 42.0853 36.5339 42.0853 37.2422C42.0853 39.3672 42.6426 40.6693 43.7572 41.1484ZM54.2075 42.4062C53.2179 41.8125 52.4888 41.2604 52.02 40.75C51.1971 39.849 50.7023 38.5417 50.5356 36.8281C50.4731 36.2135 50.4419 35.6406 50.4419 35.1094C50.4419 34.5729 50.4367 34.2161 50.4263 34.0391C50.4158 33.8568 50.3742 33.7109 50.3013 33.6016C50.1763 33.4036 49.8585 33.2812 49.3481 33.2344V32.5625H53.1919V33.2344C52.6763 33.2865 52.3429 33.401 52.1919 33.5781C52.0721 33.7292 52.0122 34.0938 52.0122 34.6719C52.0122 35.25 52.02 35.7891 52.0356 36.2891C52.0565 36.7891 52.0929 37.237 52.145 37.6328C52.1971 38.0286 52.2726 38.3854 52.3716 38.7031C52.4705 39.0156 52.6033 39.3125 52.77 39.5938C53.0721 40.1146 53.5513 40.6823 54.2075 41.2969C54.8794 40.6667 55.3273 40.1562 55.5513 39.7656C55.7804 39.3698 55.9445 39.0156 56.0434 38.7031C56.1424 38.3854 56.2179 38.0286 56.27 37.6328C56.3585 36.9609 56.4028 36.2214 56.4028 35.4141C56.4028 34.6016 56.3924 34.1172 56.3716 33.9609C56.3507 33.8047 56.3013 33.6771 56.2231 33.5781C56.0721 33.401 55.7414 33.2865 55.2309 33.2344V32.5625H59.0591V33.2344C58.5487 33.3073 58.2492 33.4115 58.1606 33.5469C58.0721 33.6771 58.0174 33.8307 57.9966 34.0078C57.9809 34.1849 57.9731 34.5469 57.9731 35.0938C57.9731 35.6354 57.9419 36.2135 57.8794 36.8281C57.8221 37.4427 57.7283 37.9896 57.5981 38.4688C57.4731 38.9479 57.3117 39.3724 57.1138 39.7422C56.9158 40.1068 56.6763 40.4427 56.395 40.75C55.9263 41.2604 55.1971 41.8125 54.2075 42.4062ZM59.1109 41.3516L59.3844 41.3125C59.6083 41.2812 59.7906 41.25 59.9313 41.2188C60.0719 41.1823 60.1813 41.1198 60.2594 41.0312C60.3948 40.8698 60.4625 40.5026 60.4625 39.9297V30.5312C60.4625 29.9375 60.4 29.5833 60.275 29.4688C60.15 29.349 59.999 29.2734 59.8219 29.2422C59.6448 29.2057 59.4078 29.1745 59.1109 29.1484V28.4844H62.0406V39.9297C62.0406 40.4714 62.1292 40.8281 62.3063 41C62.4365 41.1302 62.749 41.2292 63.2438 41.2969L63.6188 41.3516V42H59.1109V41.3516ZM69.9519 32.9766C69.1446 30.5807 67.5274 29.1146 65.1003 28.5781L65.2644 27.8906C67.655 28.2448 69.4545 29.2552 70.6628 30.9219C71.7461 32.4219 72.2878 34.2839 72.2878 36.5078C72.2878 38.2578 71.8894 39.6432 71.0925 40.6641C70.2956 41.6797 69.2279 42.1875 67.8894 42.1875C66.6081 42.1875 65.5612 41.6719 64.7487 40.6406C63.9935 39.6927 63.6159 38.5677 63.6159 37.2656C63.6159 35.9479 63.9675 34.8203 64.6706 33.8828C65.4467 32.8516 66.504 32.3359 67.8425 32.3359C68.6706 32.3359 69.3737 32.5495 69.9519 32.9766ZM70.5066 36.7031C70.5066 34.3542 69.668 33.1797 67.9909 33.1797C67.0482 33.1797 66.3633 33.6042 65.9362 34.4531C65.5821 35.1406 65.405 36.0859 65.405 37.2891C65.405 39.0703 65.8373 40.2917 66.7019 40.9531C67.0248 41.1979 67.4415 41.3203 67.9519 41.3203C68.4675 41.3203 68.8946 41.2031 69.2331 40.9688C69.5717 40.7344 69.8347 40.4115 70.0222 40C70.3451 39.2865 70.5066 38.1875 70.5066 36.7031ZM76.3006 34.1875C76.7746 33.2448 77.6235 32.4635 78.8475 31.8438C79.7485 32.3229 80.4413 32.849 80.9256 33.4219C81.6913 34.3438 82.1548 35.7135 82.3163 37.5312C82.3683 38.1562 82.3944 38.7604 82.3944 39.3438C82.3944 39.9271 82.4048 40.3229 82.4256 40.5312C82.4465 40.7396 82.4907 40.8984 82.5584 41.0078C82.6261 41.112 82.7251 41.1823 82.8553 41.2188C82.9855 41.25 83.1157 41.276 83.2459 41.2969C83.3761 41.3177 83.4673 41.3307 83.5194 41.3359C83.5767 41.3359 83.634 41.3411 83.6913 41.3516V42H79.4178V41.3516C79.7147 41.3151 79.9517 41.2812 80.1288 41.25C80.3058 41.2135 80.4413 41.1484 80.535 41.0547C80.686 40.9036 80.7616 40.4844 80.7616 39.7969V38.8906C80.7616 37.6979 80.7329 36.8724 80.6756 36.4141C80.6183 35.9505 80.5454 35.5703 80.4569 35.2734C80.3735 34.9714 80.259 34.6875 80.1131 34.4219C79.8267 33.9219 79.3788 33.4297 78.7694 32.9453C77.1235 33.9609 76.3006 35.3359 76.3006 37.0703V39.7188C76.3006 40.4062 76.3501 40.8177 76.4491 40.9531C76.5532 41.0885 76.6808 41.1771 76.8319 41.2188C76.9829 41.2552 77.1886 41.2917 77.4491 41.3281L77.6522 41.3516V42H73.3788V41.3594C73.41 41.3438 73.4491 41.3359 73.4959 41.3359C73.548 41.3307 73.6392 41.3203 73.7694 41.3047C73.9048 41.2839 74.0428 41.2552 74.1834 41.2188C74.3293 41.1823 74.4413 41.1198 74.5194 41.0312C74.6496 40.8906 74.7147 40.5365 74.7147 39.9688V34.3984C74.7147 33.9245 74.6548 33.6354 74.535 33.5312C74.4152 33.4219 74.2668 33.3516 74.0897 33.3203C73.9126 33.2839 73.6756 33.2552 73.3788 33.2344V32.5625H76.3006V34.1875ZM85.1259 28.6406L86.5166 30.0391C86.5634 30.6276 86.415 31.3672 86.0713 32.2578C85.6858 33.2682 85.152 34.1589 84.4697 34.9297L83.8681 34.5156C84.264 33.9531 84.5296 33.2917 84.665 32.5312C84.7015 32.3125 84.7197 32.1094 84.7197 31.9219C84.7197 31.5573 84.6598 31.2682 84.54 31.0547C84.3681 30.7578 84.0921 30.4193 83.7119 30.0391L85.1259 28.6406ZM87.2091 41.3516C87.4434 41.2995 87.6283 41.2552 87.7638 41.2188C87.9044 41.1771 88.0085 41.1094 88.0763 41.0156C88.1908 40.8646 88.2481 40.474 88.2481 39.8438V33.5156H86.9122V32.7969C87.6726 32.6875 88.1101 32.5755 88.2247 32.4609H88.2169C88.3315 32.3047 88.433 31.9557 88.5216 31.4141C88.6101 30.8724 88.6648 30.474 88.6856 30.2188L89.8184 29.75V32.5625H92.6466V33.5156H89.8184V39.8203C89.8184 40.3047 89.8523 40.6146 89.92 40.75C89.9929 40.8802 90.0815 40.9766 90.1856 41.0391C90.2898 41.1016 90.4304 41.1484 90.6075 41.1797C90.894 41.2318 91.4174 41.263 92.1778 41.2734V42H87.2091V41.3516ZM96.5081 41.3359C97.0967 41.2943 97.456 41.2188 97.5863 41.1094C97.7165 41 97.7972 40.875 97.8284 40.7344C97.8597 40.5938 97.8753 40.4141 97.8753 40.1953V33.5156H96.5706V32.7891C97.1071 32.7161 97.443 32.6328 97.5784 32.5391C97.7191 32.4401 97.805 32.3438 97.8363 32.25C97.8727 32.151 97.8909 32.0312 97.8909 31.8906V31.4531C97.8909 30.1146 98.2269 29.1615 98.8988 28.5938C99.5029 28.0781 100.451 27.8203 101.743 27.8203H102.657L102.727 28.6562L101.774 28.7812C100.94 28.8906 100.352 29.1094 100.008 29.4375C99.6331 29.7865 99.4456 30.3359 99.4456 31.0859V32.5625H102.094V33.5156H99.4613V40.0312C99.4613 40.3021 99.4821 40.5182 99.5238 40.6797C99.5654 40.8359 99.654 40.9583 99.7894 41.0469C99.9925 41.1771 100.529 41.2734 101.399 41.3359V42H96.5081V41.3359ZM102.607 29.4453L104.029 28.0469L105.419 29.4453L104.029 30.8594L102.607 29.4453ZM101.958 41.3516L102.232 41.3125C102.456 41.2812 102.638 41.25 102.779 41.2188C102.919 41.1823 103.029 41.1198 103.107 41.0312C103.242 40.8698 103.31 40.5 103.31 39.9219V34.625C103.31 34.0312 103.248 33.6745 103.123 33.5547C102.998 33.4297 102.846 33.3516 102.669 33.3203C102.492 33.2891 102.255 33.2604 101.958 33.2344V32.5625H106.232V33.2344C105.935 33.2656 105.698 33.2969 105.521 33.3281C105.344 33.3594 105.208 33.4193 105.115 33.5078C104.964 33.6484 104.888 34.0208 104.888 34.625V39.9219C104.888 40.5156 104.935 40.8672 105.029 40.9766C105.123 41.0859 105.237 41.1589 105.373 41.1953C105.513 41.2318 105.698 41.2682 105.927 41.3047L106.232 41.3516V42H101.958V41.3516ZM109.596 34.1875C110.07 33.2448 110.919 32.4635 112.143 31.8438C113.044 32.3229 113.737 32.849 114.221 33.4219C114.987 34.3438 115.45 35.7135 115.612 37.5312C115.664 38.1562 115.69 38.7604 115.69 39.3438C115.69 39.9271 115.7 40.3229 115.721 40.5312C115.742 40.7396 115.786 40.8984 115.854 41.0078C115.922 41.112 116.021 41.1823 116.151 41.2188C116.281 41.25 116.411 41.276 116.542 41.2969C116.672 41.3177 116.763 41.3307 116.815 41.3359C116.872 41.3359 116.93 41.3411 116.987 41.3516V42H112.713V41.3516C113.01 41.3151 113.247 41.2812 113.424 41.25C113.601 41.2135 113.737 41.1484 113.831 41.0547C113.982 40.9036 114.057 40.4844 114.057 39.7969V38.8906C114.057 37.6979 114.029 36.8724 113.971 36.4141C113.914 35.9505 113.841 35.5703 113.753 35.2734C113.669 34.9714 113.555 34.6875 113.409 34.4219C113.122 33.9219 112.674 33.4297 112.065 32.9453C110.419 33.9609 109.596 35.3359 109.596 37.0703V39.7188C109.596 40.4062 109.646 40.8177 109.745 40.9531C109.849 41.0885 109.976 41.1771 110.128 41.2188C110.279 41.2552 110.484 41.2917 110.745 41.3281L110.948 41.3516V42H106.674V41.3594C106.706 41.3438 106.745 41.3359 106.792 41.3359C106.844 41.3307 106.935 41.3203 107.065 41.3047C107.2 41.2839 107.338 41.2552 107.479 41.2188C107.625 41.1823 107.737 41.1198 107.815 41.0312C107.945 40.8906 108.01 40.5365 108.01 39.9688V34.3984C108.01 33.9245 107.95 33.6354 107.831 33.5312C107.711 33.4219 107.562 33.3516 107.385 33.3203C107.208 33.2839 106.971 33.2552 106.674 33.2344V32.5625H109.596V34.1875ZM123.679 32.9766C122.872 30.5807 121.255 29.1146 118.828 28.5781L118.992 27.8906C121.382 28.2448 123.182 29.2552 124.39 30.9219C125.474 32.4219 126.015 34.2839 126.015 36.5078C126.015 38.2578 125.617 39.6432 124.82 40.6641C124.023 41.6797 122.955 42.1875 121.617 42.1875C120.336 42.1875 119.289 41.6719 118.476 40.6406C117.721 39.6927 117.343 38.5677 117.343 37.2656C117.343 35.9479 117.695 34.8203 118.398 33.8828C119.174 32.8516 120.231 32.3359 121.57 32.3359C122.398 32.3359 123.101 32.5495 123.679 32.9766ZM124.234 36.7031C124.234 34.3542 123.396 33.1797 121.718 33.1797C120.776 33.1797 120.091 33.6042 119.664 34.4531C119.31 35.1406 119.132 36.0859 119.132 37.2891C119.132 39.0703 119.565 40.2917 120.429 40.9531C120.752 41.1979 121.169 41.3203 121.679 41.3203C122.195 41.3203 122.622 41.2031 122.961 40.9688C123.299 40.7344 123.562 40.4115 123.75 40C124.073 39.2865 124.234 38.1875 124.234 36.7031ZM133.611 34.0156C133.523 34.1771 133.478 34.3646 133.478 34.5781C133.478 34.7865 133.577 35.0391 133.775 35.3359L133.244 35.6562C132.629 35.5521 132.184 35.2943 131.908 34.8828C131.809 34.7422 131.76 34.5599 131.76 34.3359C131.76 34.112 131.851 33.8802 132.033 33.6406C132.215 33.3958 132.471 33.1823 132.799 33C133.518 32.6042 134.424 32.4062 135.518 32.4062C137.299 32.4062 138.406 32.9219 138.838 33.9531C138.973 34.276 139.041 34.6328 139.041 35.0234V39.9219C139.041 40.526 139.098 40.8906 139.213 41.0156C139.327 41.1354 139.465 41.2135 139.627 41.25C139.794 41.2865 140.015 41.3177 140.291 41.3438V42H138.353C137.968 42 137.528 42.0208 137.033 42.0625C136.018 42.1562 135.236 42.2031 134.689 42.2031C134.143 42.2031 133.661 42.1302 133.244 41.9844C132.827 41.8385 132.486 41.6458 132.221 41.4062C131.705 40.9427 131.447 40.3516 131.447 39.6328C131.447 38.8568 131.898 38.1406 132.799 37.4844C133.882 36.6823 135.437 36.2604 137.463 36.2188V34.8516C137.463 33.7682 136.741 33.2266 135.299 33.2266C134.476 33.2266 133.913 33.4896 133.611 34.0156ZM137.463 37.0312H137.478L137.463 37.0234V37.0312ZM137.463 37.0312C134.645 37.1979 133.236 38.0651 133.236 39.6328C133.236 40.4609 133.656 40.9948 134.494 41.2344C134.754 41.3125 135.08 41.3516 135.471 41.3516C135.861 41.3516 136.192 41.3307 136.463 41.2891C136.739 41.2422 136.95 41.1615 137.096 41.0469C137.247 40.9323 137.346 40.776 137.393 40.5781C137.439 40.375 137.463 40.1146 137.463 39.7969V37.0312ZM143.741 34.1875C144.215 33.2448 145.064 32.4635 146.288 31.8438C147.189 32.3229 147.882 32.849 148.366 33.4219C149.132 34.3438 149.595 35.7135 149.757 37.5312C149.809 38.1562 149.835 38.7604 149.835 39.3438C149.835 39.9271 149.845 40.3229 149.866 40.5312C149.887 40.7396 149.931 40.8984 149.999 41.0078C150.067 41.112 150.166 41.1823 150.296 41.2188C150.426 41.25 150.556 41.276 150.687 41.2969C150.817 41.3177 150.908 41.3307 150.96 41.3359C151.017 41.3359 151.075 41.3411 151.132 41.3516V42H146.858V41.3516C147.155 41.3151 147.392 41.2812 147.569 41.25C147.746 41.2135 147.882 41.1484 147.976 41.0547C148.127 40.9036 148.202 40.4844 148.202 39.7969V38.8906C148.202 37.6979 148.174 36.8724 148.116 36.4141C148.059 35.9505 147.986 35.5703 147.897 35.2734C147.814 34.9714 147.7 34.6875 147.554 34.4219C147.267 33.9219 146.819 33.4297 146.21 32.9453C144.564 33.9609 143.741 35.3359 143.741 37.0703V39.7188C143.741 40.4062 143.791 40.8177 143.89 40.9531C143.994 41.0885 144.121 41.1771 144.272 41.2188C144.424 41.2552 144.629 41.2917 144.89 41.3281L145.093 41.3516V42H140.819V41.3594C140.851 41.3438 140.89 41.3359 140.937 41.3359C140.989 41.3307 141.08 41.3203 141.21 41.3047C141.345 41.2839 141.483 41.2552 141.624 41.2188C141.77 41.1823 141.882 41.1198 141.96 41.0312C142.09 40.8906 142.155 40.5365 142.155 39.9688V34.3984C142.155 33.9245 142.095 33.6354 141.976 33.5312C141.856 33.4219 141.707 33.3516 141.53 33.3203C141.353 33.2839 141.116 33.2552 140.819 33.2344V32.5625H143.741V34.1875ZM157.981 40.5703C157.392 41.487 156.574 42.2031 155.527 42.7188C154.626 42.2396 153.934 41.7135 153.449 41.1406C152.684 40.2188 152.22 38.849 152.059 37.0312C152.007 36.4062 151.981 35.8099 151.981 35.2422C151.981 34.6745 151.968 34.2839 151.942 34.0703C151.916 33.8568 151.863 33.6927 151.785 33.5781C151.712 33.4583 151.606 33.3776 151.465 33.3359C151.33 33.2891 151.147 33.2552 150.918 33.2344V32.5625H154.856V33.2344L154.66 33.2578C154.426 33.2891 154.238 33.3229 154.098 33.3594C153.962 33.3906 153.858 33.4531 153.785 33.5469C153.671 33.7031 153.613 34.1094 153.613 34.7656V35.6719C153.613 36.4688 153.629 37.1589 153.66 37.7422C153.697 38.3255 153.783 38.8438 153.918 39.2969C154.173 40.1615 154.733 40.9349 155.598 41.6172C157.197 40.6328 157.996 39.2552 157.996 37.4844V34.8438C157.996 34.1406 157.947 33.7266 157.848 33.6016C157.754 33.4766 157.637 33.3958 157.496 33.3594C157.361 33.3229 157.176 33.2891 156.942 33.2578L156.754 33.2344V32.5625H160.684V33.2266L160.668 33.2344C160.21 33.276 159.929 33.3724 159.824 33.5234C159.663 33.7578 159.582 34.2188 159.582 34.9062V38.3984C159.582 40.7266 159.251 42.5234 158.59 43.7891C157.788 45.3307 156.366 46.263 154.324 46.5859L154.16 45.7656C155.41 45.4583 156.332 44.8906 156.926 44.0625C157.504 43.2604 157.856 42.0964 157.981 40.5703ZM161.29 41.3516C161.525 41.2995 161.71 41.2552 161.845 41.2188C161.986 41.1771 162.09 41.1094 162.158 41.0156C162.272 40.8646 162.329 40.474 162.329 39.8438V33.5156H160.993V32.7969C161.754 32.6875 162.191 32.5755 162.306 32.4609H162.298C162.413 32.3047 162.514 31.9557 162.603 31.4141C162.691 30.8724 162.746 30.474 162.767 30.2188L163.9 29.75V32.5625H166.728V33.5156H163.9V39.8203C163.9 40.3047 163.934 40.6146 164.001 40.75C164.074 40.8802 164.163 40.9766 164.267 41.0391C164.371 41.1016 164.512 41.1484 164.689 41.1797C164.975 41.2318 165.499 41.263 166.259 41.2734V42H161.29V41.3516ZM169.733 34.1875C170.202 33.2656 171.069 32.4844 172.334 31.8438C173.241 32.3281 173.928 32.8568 174.397 33.4297C175.163 34.3672 175.626 35.7344 175.788 37.5312C175.84 38.1615 175.866 38.7682 175.866 39.3516C175.866 39.9349 175.873 40.3307 175.889 40.5391C175.91 40.7474 175.954 40.9036 176.022 41.0078C176.09 41.112 176.186 41.1823 176.311 41.2188C176.441 41.25 176.569 41.276 176.694 41.2969C176.824 41.3177 176.915 41.3307 176.967 41.3359C177.024 41.3359 177.079 41.3411 177.131 41.3516V42H172.889V41.3516C173.186 41.3151 173.423 41.2812 173.6 41.25C173.777 41.2135 173.913 41.1484 174.006 41.0547C174.157 40.9036 174.233 40.4844 174.233 39.7969V38.8828C174.233 37.7005 174.204 36.8776 174.147 36.4141C174.09 35.9453 174.017 35.5625 173.928 35.2656C173.845 34.9688 173.73 34.6875 173.584 34.4219C173.308 33.9271 172.868 33.4349 172.264 32.9453C171.488 33.4193 170.913 33.9062 170.538 34.4062C170.001 35.125 169.733 36.013 169.733 37.0703V39.7188C169.733 40.0781 169.743 40.3594 169.764 40.5625C169.785 40.7604 169.84 40.9115 169.928 41.0156C170.022 41.1198 170.157 41.1927 170.334 41.2344C170.517 41.2708 170.767 41.3099 171.084 41.3516V42H166.795V41.3594L166.811 41.3516C167.118 41.3151 167.36 41.2786 167.538 41.2422C167.715 41.2005 167.847 41.1328 167.936 41.0391C168.071 40.8932 168.139 40.5339 168.139 39.9609V30.4922C168.139 29.9141 168.077 29.5677 167.952 29.4531C167.832 29.3385 167.683 29.2656 167.506 29.2344C167.329 29.1979 167.092 29.1667 166.795 29.1406V28.4844H171.084V29.1406C170.793 29.1719 170.558 29.2031 170.381 29.2344C170.204 29.2656 170.069 29.3229 169.975 29.4062C169.814 29.5417 169.733 29.9036 169.733 30.4922V34.1875ZM177.808 29.4453L179.23 28.0469L180.621 29.4453L179.23 30.8594L177.808 29.4453ZM177.16 41.3516L177.433 41.3125C177.657 41.2812 177.839 41.25 177.98 41.2188C178.121 41.1823 178.23 41.1198 178.308 41.0312C178.444 40.8698 178.511 40.5 178.511 39.9219V34.625C178.511 34.0312 178.449 33.6745 178.324 33.5547C178.199 33.4297 178.048 33.3516 177.871 33.3203C177.694 33.2891 177.457 33.2604 177.16 33.2344V32.5625H181.433V33.2344C181.136 33.2656 180.899 33.2969 180.722 33.3281C180.545 33.3594 180.41 33.4193 180.316 33.5078C180.165 33.6484 180.089 34.0208 180.089 34.625V39.9219C180.089 40.5156 180.136 40.8672 180.23 40.9766C180.324 41.0859 180.438 41.1589 180.574 41.1953C180.714 41.2318 180.899 41.2682 181.128 41.3047L181.433 41.3516V42H177.16V41.3516ZM184.798 34.1875C185.271 33.2448 186.12 32.4635 187.344 31.8438C188.245 32.3229 188.938 32.849 189.423 33.4219C190.188 34.3438 190.652 35.7135 190.813 37.5312C190.865 38.1562 190.891 38.7604 190.891 39.3438C190.891 39.9271 190.902 40.3229 190.923 40.5312C190.943 40.7396 190.988 40.8984 191.055 41.0078C191.123 41.112 191.222 41.1823 191.352 41.2188C191.482 41.25 191.613 41.276 191.743 41.2969C191.873 41.3177 191.964 41.3307 192.016 41.3359C192.074 41.3359 192.131 41.3411 192.188 41.3516V42H187.915V41.3516C188.212 41.3151 188.449 41.2812 188.626 41.25C188.803 41.2135 188.938 41.1484 189.032 41.0547C189.183 40.9036 189.258 40.4844 189.258 39.7969V38.8906C189.258 37.6979 189.23 36.8724 189.173 36.4141C189.115 35.9505 189.042 35.5703 188.954 35.2734C188.87 34.9714 188.756 34.6875 188.61 34.4219C188.324 33.9219 187.876 33.4297 187.266 32.9453C185.62 33.9609 184.798 35.3359 184.798 37.0703V39.7188C184.798 40.4062 184.847 40.8177 184.946 40.9531C185.05 41.0885 185.178 41.1771 185.329 41.2188C185.48 41.2552 185.686 41.2917 185.946 41.3281L186.149 41.3516V42H181.876V41.3594C181.907 41.3438 181.946 41.3359 181.993 41.3359C182.045 41.3307 182.136 41.3203 182.266 41.3047C182.402 41.2839 182.54 41.2552 182.68 41.2188C182.826 41.1823 182.938 41.1198 183.016 41.0312C183.146 40.8906 183.212 40.5365 183.212 39.9688V34.3984C183.212 33.9245 183.152 33.6354 183.032 33.5312C182.912 33.4219 182.764 33.3516 182.587 33.3203C182.409 33.2839 182.173 33.2552 181.876 33.2344V32.5625H184.798V34.1875ZM198.857 41.1094C198.18 41.8281 197.365 42.1875 196.412 42.1875C195.099 42.1875 194.076 41.7005 193.342 40.7266C192.685 39.8568 192.357 38.75 192.357 37.4062C192.357 36.0365 192.719 34.8854 193.443 33.9531C194.245 32.9219 195.381 32.4062 196.849 32.4062C197.266 32.4062 197.701 32.4219 198.154 32.4531C199.019 32.5208 199.558 32.5547 199.771 32.5547H201.795V33.2188C201.201 33.2604 200.842 33.3464 200.717 33.4766C200.592 33.6016 200.516 33.7448 200.49 33.9062C200.464 34.0625 200.451 34.2656 200.451 34.5156V41.6016C200.451 42.9557 200.079 44.1042 199.334 45.0469C198.526 46.0729 197.441 46.5859 196.076 46.5859C195.394 46.5859 194.735 46.4297 194.099 46.1172L194.404 45.2734C194.852 45.4505 195.355 45.5391 195.912 45.5391C196.469 45.5391 196.938 45.4245 197.318 45.1953C197.704 44.9714 198.011 44.6771 198.24 44.3125C198.651 43.6406 198.857 42.7422 198.857 41.6172V41.1094ZM194.131 37.4062C194.131 40.0156 194.912 41.3203 196.474 41.3203C197.151 41.3203 197.719 41.1016 198.177 40.6641C198.631 40.2318 198.857 39.7109 198.857 39.1016V34.8438C198.857 34.3177 198.771 33.9635 198.599 33.7812C198.266 33.4271 197.672 33.25 196.818 33.25C195.026 33.25 194.131 34.6354 194.131 37.4062ZM207.344 39.6406L208.734 41.0391L207.344 42.4531L205.922 41.0391L207.344 39.6406ZM207.344 32.7109L208.734 34.1094L207.344 35.5234L205.922 34.1094L207.344 32.7109ZM211.45 35.6797C211.45 39.6797 212.484 42.5443 214.552 44.2734L214.099 44.7344C213.041 43.9583 212.13 42.9583 211.364 41.7344C210.302 40.0365 209.771 38.0599 209.771 35.8047C209.771 33.1276 210.614 30.8333 212.302 28.9219C212.885 28.2656 213.484 27.75 214.099 27.375L214.552 27.8438C212.666 29.4792 211.646 31.7031 211.489 34.5156C211.463 34.9323 211.45 35.3203 211.45 35.6797Z" fill="white"/>
</svg>
