<svg width="232" height="48" viewBox="0 0 232 48" fill="none" xmlns="http://www.w3.org/2000/svg">
<g clip-path="url(#clip0_3_96)">
<mask id="mask0_3_96" style="mask-type:alpha" maskUnits="userSpaceOnUse" x="6" y="14" width="36" height="36">
<circle cx="24" cy="32" r="18" fill="#8C19E6"/>
</mask>
<g mask="url(#mask0_3_96)">
<rect width="39" height="25" transform="matrix(1 0 0 -1 4 48)" fill="#AA3EFF"/>
</g>
<mask id="path-3-outside-1_3_96" maskUnits="userSpaceOnUse" x="26" y="13" width="8" height="7" fill="black">
<rect fill="white" x="26" y="13" width="8" height="7"/>
<path d="M31 17C31 16.8687 30.9741 16.7386 30.9239 16.6173C30.8736 16.496 30.8 16.3858 30.7071 16.2929C30.6142 16.2 30.504 16.1264 30.3827 16.0761C30.2614 16.0259 30.1313 16 30 16C29.8687 16 29.7386 16.0259 29.6173 16.0761C29.496 16.1264 29.3858 16.2 29.2929 16.2929C29.2 16.3858 29.1264 16.496 29.0761 16.6173C29.0259 16.7386 29 16.8687 29 17L30 17H31Z"/>
</mask>
<path d="M31 17C31 16.8687 30.9741 16.7386 30.9239 16.6173C30.8736 16.496 30.8 16.3858 30.7071 16.2929C30.6142 16.2 30.504 16.1264 30.3827 16.0761C30.2614 16.0259 30.1313 16 30 16C29.8687 16 29.7386 16.0259 29.6173 16.0761C29.496 16.1264 29.3858 16.2 29.2929 16.2929C29.2 16.3858 29.1264 16.496 29.0761 16.6173C29.0259 16.7386 29 16.8687 29 17L30 17H31Z" stroke="#FFDD2B" stroke-width="6" stroke-linecap="round" mask="url(#path-3-outside-1_3_96)"/>
<path d="M24 23L9 8" stroke="#AA3EFF" stroke-width="4" stroke-linecap="square"/>
<path d="M40 20H8" stroke="#AA3EFF" stroke-width="6" stroke-linecap="square"/>
<path d="M30.1292 30.25C29.4059 28.9972 28.2853 28.0215 26.945 27.4774C25.6046 26.9332 24.1211 26.8518 22.7292 27.2459C21.3373 27.64 20.1167 28.4871 19.2606 29.6532C18.4044 30.8192 17.9617 32.2375 18.0026 33.6835C18.0434 35.1296 18.5655 36.5206 19.4861 37.6365C20.4067 38.7524 21.6732 39.5292 23.0851 39.8441C24.497 40.159 25.9736 39.9939 27.2811 39.375C28.5886 38.7561 29.6522 37.7187 30.3037 36.427" stroke="white" stroke-width="3" stroke-linecap="square"/>
<path d="M28 25L19 41" stroke="white" stroke-width="3" stroke-linecap="square"/>
<path d="M15 22C15 23.1046 15.8954 24 17 24C18.1046 24 19 23.1046 19 22H15ZM15 17V22H19V17H15Z" fill="#FFDD2B"/>
<path d="M12 28C12 29.1046 12.8954 30 14 30C15.1046 30 16 29.1046 16 28H12ZM12 17V28H16V17H12Z" fill="#FFDD2B"/>
<circle cx="22" cy="9" r="3" stroke="#FFDD2B" stroke-width="3" stroke-linecap="round"/>
<circle cx="31" cy="4" r="3" fill="#FFDD2B"/>
</g>
<path d="M140.42 26.5112C140.457 26.062 140.476 25.7064 140.476 25.4443C140.476 24.8828 140.416 24.4074 140.296 24.0181C140.184 23.6213 139.982 23.2918 139.69 23.0298C139.398 22.7603 139.057 22.5356 138.668 22.356C137.859 21.9891 137.028 21.8057 136.175 21.8057C135.329 21.8057 134.61 21.9142 134.019 22.1313C133.427 22.341 132.907 22.6292 132.458 22.9961C132.016 23.363 131.638 23.7972 131.323 24.2988C131.009 24.8005 130.754 25.3395 130.56 25.916C130.178 27.0166 129.987 28.2445 129.987 29.5996C129.987 31.4564 130.488 33.0586 131.492 34.4062C132.203 35.3496 133.169 36.016 134.389 36.4053C135.011 36.6074 135.654 36.7085 136.321 36.7085C136.987 36.7085 137.56 36.6711 138.039 36.5962C138.518 36.5138 138.967 36.3903 139.387 36.2256C140.225 35.9111 140.996 35.4095 141.7 34.7207L142.262 35.4731C141.685 36.3341 140.869 37.0192 139.813 37.5283C138.765 38.0299 137.5 38.2808 136.018 38.2808C133.277 38.2808 131.114 37.3936 129.526 35.6191C128.074 33.9795 127.348 31.9468 127.348 29.521C127.348 28.0011 127.677 26.5674 128.336 25.2197C129.399 23.056 131.099 21.626 133.435 20.9297C134.236 20.6976 134.966 20.5815 135.625 20.5815C136.283 20.5815 136.763 20.6003 137.062 20.6377C137.361 20.6676 137.635 20.7126 137.882 20.7725C138.129 20.8249 138.354 20.8848 138.556 20.9521L139.128 21.1431C139.78 21.3677 140.293 21.48 140.667 21.48C141.041 21.48 141.457 21.173 141.914 20.5591H142.98L141.498 26.5112H140.42ZM146.604 26.5225C146.477 26.7546 146.413 27.0241 146.413 27.3311C146.413 27.6305 146.555 27.9937 146.84 28.4204L146.076 28.8809C145.193 28.7311 144.552 28.3605 144.156 27.769C144.013 27.5669 143.942 27.3049 143.942 26.9829C143.942 26.661 144.073 26.3278 144.335 25.9834C144.597 25.6315 144.964 25.3245 145.436 25.0625C146.469 24.4935 147.772 24.209 149.344 24.209C151.905 24.209 153.496 24.9502 154.117 26.4326C154.312 26.8968 154.409 27.4097 154.409 27.9712V35.0127C154.409 35.8812 154.491 36.4053 154.656 36.585C154.821 36.7572 155.019 36.8695 155.251 36.9219C155.491 36.9743 155.809 37.0192 156.206 37.0566V38H153.421C152.867 38 152.234 38.0299 151.523 38.0898C150.063 38.2246 148.94 38.292 148.154 38.292C147.368 38.292 146.675 38.1872 146.076 37.9775C145.477 37.7679 144.987 37.4909 144.605 37.1465C143.864 36.4801 143.493 35.6304 143.493 34.5972C143.493 33.4816 144.141 32.4521 145.436 31.5088C146.993 30.3558 149.228 29.7493 152.14 29.6895V27.7241C152.14 26.1668 151.104 25.3882 149.03 25.3882C147.847 25.3882 147.038 25.7663 146.604 26.5225ZM152.14 30.8574H152.163L152.14 30.8462V30.8574ZM152.14 30.8574C148.09 31.097 146.065 32.3436 146.065 34.5972C146.065 35.7876 146.668 36.555 147.873 36.8994C148.247 37.0117 148.715 37.0679 149.277 37.0679C149.838 37.0679 150.314 37.0379 150.703 36.978C151.1 36.9106 151.403 36.7946 151.613 36.6299C151.83 36.4652 151.972 36.2406 152.039 35.9561C152.107 35.6641 152.14 35.2897 152.14 34.833V30.8574ZM162.895 38.584C161.473 37.7305 160.425 36.9368 159.751 36.2031C158.568 34.9079 157.856 33.0286 157.617 30.5654C157.527 29.682 157.482 28.8584 157.482 28.0947C157.482 27.3236 157.475 26.8107 157.46 26.5562C157.445 26.2941 157.385 26.0845 157.28 25.9272C157.1 25.6427 156.644 25.4668 155.91 25.3994V24.4336H161.435V25.3994C160.694 25.4743 160.215 25.639 159.998 25.8936C159.826 26.1107 159.739 26.6348 159.739 27.4658C159.739 28.2969 159.751 29.0718 159.773 29.7905C159.803 30.5093 159.856 31.1532 159.93 31.7222C160.005 32.2912 160.114 32.804 160.256 33.2607C160.398 33.71 160.589 34.1367 160.829 34.541C161.263 35.2897 161.952 36.1058 162.895 36.9893C163.861 36.0833 164.505 35.3496 164.827 34.7881C165.156 34.2191 165.392 33.71 165.534 33.2607C165.677 32.804 165.785 32.2912 165.86 31.7222C165.987 30.7563 166.051 29.6932 166.051 28.5327C166.051 27.3647 166.036 26.6685 166.006 26.4438C165.976 26.2192 165.905 26.0358 165.793 25.8936C165.576 25.639 165.1 25.4743 164.366 25.3994V24.4336H169.869V25.3994C169.136 25.5042 168.705 25.654 168.578 25.8486C168.451 26.0358 168.372 26.2567 168.342 26.5112C168.32 26.7658 168.308 27.2861 168.308 28.0723C168.308 28.8509 168.263 29.682 168.174 30.5654C168.091 31.4489 167.956 32.235 167.769 32.9238C167.59 33.6126 167.357 34.2228 167.073 34.7544C166.788 35.2785 166.444 35.7614 166.04 36.2031C165.366 36.9368 164.318 37.7305 162.895 38.584ZM169.944 37.0679L170.337 37.0117C170.659 36.9668 170.921 36.9219 171.123 36.877C171.325 36.8245 171.482 36.7347 171.595 36.6074C171.789 36.3753 171.887 35.8475 171.887 35.0239V21.5137C171.887 20.6602 171.797 20.151 171.617 19.9863C171.438 19.8141 171.22 19.7056 170.966 19.6606C170.711 19.6082 170.371 19.5633 169.944 19.5259V18.5713H174.155V35.0239C174.155 35.8026 174.283 36.3154 174.537 36.5625C174.724 36.7497 175.174 36.8919 175.885 36.9893L176.424 37.0679V38H169.944V37.0679ZM185.528 25.0288C184.367 21.5848 182.043 19.4772 178.554 18.7061L178.789 17.7178C182.226 18.2269 184.813 19.6794 186.55 22.0752C188.107 24.2314 188.886 26.908 188.886 30.105C188.886 32.6206 188.313 34.6121 187.167 36.0796C186.022 37.5396 184.487 38.2695 182.563 38.2695C180.721 38.2695 179.216 37.5283 178.048 36.0459C176.963 34.6833 176.42 33.0661 176.42 31.1943C176.42 29.3001 176.925 27.6792 177.936 26.3315C179.052 24.8491 180.571 24.1079 182.496 24.1079C183.686 24.1079 184.697 24.4149 185.528 25.0288ZM186.325 30.3857C186.325 27.0091 185.12 25.3208 182.709 25.3208C181.354 25.3208 180.369 25.931 179.755 27.1514C179.246 28.1396 178.992 29.4985 178.992 31.228C178.992 33.7886 179.613 35.5443 180.856 36.4951C181.32 36.847 181.919 37.0229 182.653 37.0229C183.394 37.0229 184.008 36.8545 184.495 36.5176C184.981 36.1807 185.359 35.7165 185.629 35.125C186.093 34.0993 186.325 32.5195 186.325 30.3857ZM198.147 28.5103C198.566 28.106 198.776 27.492 198.776 26.6685C198.776 26.2642 198.585 25.946 198.203 25.7139C197.881 25.5267 197.391 25.4331 196.732 25.4331C195.309 25.4331 194.598 25.8973 194.598 26.8257V35.3608C194.598 35.6828 194.628 35.9486 194.688 36.1582C194.755 36.3678 194.901 36.5363 195.126 36.6636C195.515 36.8882 196.414 37.0229 197.821 37.0679V38H190.319V37.0791L190.342 37.0679C191.225 36.978 191.753 36.8545 191.925 36.6973C192.105 36.5326 192.213 36.3454 192.251 36.1357C192.296 35.9186 192.318 35.6304 192.318 35.271V27.4883C192.318 26.6722 192.236 26.1668 192.071 25.9722C191.914 25.7775 191.719 25.6427 191.487 25.5679C191.255 25.493 190.948 25.4331 190.566 25.3882V24.4336H192.891C193.812 24.4336 194.467 24.4149 194.856 24.3774C195.246 24.34 195.553 24.3138 195.777 24.2988C196.451 24.2389 196.998 24.209 197.417 24.209C197.844 24.209 198.282 24.2427 198.731 24.3101C199.18 24.3774 199.577 24.4935 199.921 24.6582C200.677 25.0176 201.055 25.5754 201.055 26.3315C201.055 26.938 200.808 27.5033 200.314 28.0273C199.85 28.5215 199.333 28.8472 198.764 29.0044L198.147 28.5103ZM201.927 31.1494C201.927 30.5654 201.984 29.9852 202.096 29.4087C202.216 28.8322 202.392 28.2856 202.624 27.769C202.863 27.2524 203.159 26.777 203.511 26.3428C203.863 25.9085 204.271 25.5342 204.735 25.2197C205.731 24.5459 206.888 24.209 208.205 24.209C210.197 24.209 211.769 24.9202 212.922 26.3428C213.978 27.6455 214.506 29.2515 214.506 31.1606C214.506 33.0848 213.978 34.7207 212.922 36.0684C211.769 37.5358 210.197 38.2695 208.205 38.2695C206.221 38.2695 204.649 37.5246 203.488 36.0347C202.448 34.687 201.927 33.0586 201.927 31.1494ZM206.891 36.7759C207.273 36.9406 207.715 37.0229 208.216 37.0229C208.726 37.0229 209.171 36.9443 209.553 36.7871C209.935 36.6224 210.264 36.3978 210.541 36.1133C210.818 35.8288 211.047 35.4993 211.226 35.125C211.413 34.7432 211.563 34.3351 211.675 33.9009C211.878 33.1222 211.979 32.3548 211.979 31.5986C211.979 30.835 211.956 30.221 211.911 29.7568C211.866 29.2852 211.788 28.8397 211.675 28.4204C211.563 27.9937 211.413 27.5968 211.226 27.23C211.047 26.8631 210.818 26.5449 210.541 26.2754C209.942 25.7064 209.171 25.4219 208.228 25.4219C206.453 25.4219 205.308 26.4401 204.791 28.4766C204.589 29.2477 204.488 30.1424 204.488 31.1606C204.488 34.2153 205.289 36.0871 206.891 36.7759ZM220.184 26.7695C220.865 25.4144 222.086 24.2913 223.845 23.4004C225.14 24.0892 226.136 24.8454 226.833 25.6689C227.933 26.9941 228.599 28.9632 228.832 31.5762C228.906 32.4746 228.944 33.3431 228.944 34.1816C228.944 35.0202 228.959 35.5892 228.989 35.8887C229.019 36.1882 229.082 36.4165 229.18 36.5737C229.277 36.7235 229.419 36.8245 229.606 36.877C229.794 36.9219 229.981 36.9593 230.168 36.9893C230.355 37.0192 230.486 37.0379 230.561 37.0454C230.643 37.0454 230.726 37.0529 230.808 37.0679V38H224.665V37.0679C225.092 37.0155 225.432 36.9668 225.687 36.9219C225.942 36.8695 226.136 36.7759 226.271 36.6411C226.488 36.424 226.597 35.8213 226.597 34.833V33.5303C226.597 31.8158 226.556 30.6291 226.473 29.9702C226.391 29.3039 226.286 28.7573 226.159 28.3306C226.039 27.8963 225.874 27.4883 225.665 27.1064C225.253 26.3877 224.609 25.6802 223.733 24.9839C221.367 26.4438 220.184 28.4204 220.184 30.9136V34.7207C220.184 35.709 220.255 36.3005 220.397 36.4951C220.547 36.6898 220.731 36.8171 220.948 36.877C221.165 36.9294 221.461 36.9818 221.835 37.0342L222.127 37.0679V38H215.984V37.0791C216.029 37.0566 216.085 37.0454 216.152 37.0454C216.227 37.0379 216.358 37.0229 216.545 37.0005C216.74 36.9705 216.938 36.9294 217.141 36.877C217.35 36.8245 217.511 36.7347 217.624 36.6074C217.811 36.4053 217.904 35.8962 217.904 35.0801V27.0728C217.904 26.3914 217.818 25.9759 217.646 25.8262C217.474 25.6689 217.26 25.5679 217.006 25.5229C216.751 25.4705 216.411 25.4294 215.984 25.3994V24.4336H220.184V26.7695Z" fill="white"/>
<path d="M63.854 38.26C67.676 38.26 70.614 36.206 71.862 32.748L69.704 31.864C68.742 34.49 66.61 36.05 63.854 36.05C60.136 36.05 57.328 33.346 57.328 28.9C57.328 24.454 60.136 21.75 63.854 21.75C66.61 21.75 68.742 23.31 69.704 25.936L71.862 25.052C70.614 21.594 67.676 19.54 63.854 19.54C58.628 19.54 54.884 23.336 54.884 28.9C54.884 34.464 58.628 38.26 63.854 38.26ZM78.5732 24.636C76.9872 24.636 75.6612 25.468 74.9072 27.132V24.87H72.6712V38H74.9072V30.954C74.9072 28.562 76.2332 27.002 78.1052 27.002H79.3532V24.636H78.5732ZM85.4435 33.034L81.4655 24.87H78.9175L84.2475 35.478L80.9455 42.29H83.3895L91.8395 24.87H89.3955L85.4435 33.034ZM98.9853 24.636C96.8013 24.636 95.2933 25.78 94.4093 27.392V24.87H92.1733V42.29H94.4093V35.478C95.2933 37.09 96.8013 38.234 98.9853 38.234C102.443 38.234 105.069 35.478 105.069 31.422C105.069 27.392 102.443 24.636 98.9853 24.636ZM98.5953 36.206C96.1253 36.206 94.3573 34.438 94.3573 31.448C94.3573 28.458 96.1253 26.664 98.5953 26.664C101.065 26.664 102.807 28.458 102.807 31.448C102.807 34.438 101.065 36.206 98.5953 36.206ZM112.49 24.87H109.396V20.554L107.16 22.01V24.87H104.716V26.768H107.16V34.126C107.16 36.388 108.408 38 110.93 38H112.49V36.024H111.138C109.916 36.024 109.396 35.27 109.396 33.944V26.768H112.49V24.87ZM118.976 38.26C122.772 38.26 125.58 35.478 125.58 31.422C125.58 27.392 122.772 24.636 118.976 24.636C115.206 24.636 112.372 27.392 112.372 31.422C112.372 35.478 115.206 38.26 118.976 38.26ZM118.976 36.232C116.506 36.232 114.66 34.438 114.66 31.422C114.66 28.458 116.506 26.664 118.976 26.664C121.472 26.664 123.318 28.458 123.318 31.422C123.318 34.438 121.472 36.232 118.976 36.232Z" fill="#FFDD29"/>
<defs>
<clipPath id="clip0_3_96">
<rect width="48" height="48" fill="white"/>
</clipPath>
</defs>
</svg>
